<svg width="532" height="360" viewBox="0 0 532 360" fill="none" xmlns="http://www.w3.org/2000/svg">
<rect width="71" height="69" fill="black" fill-opacity="0" transform="translate(104 126)"/>
<rect x="104" y="126" width="71" height="69" fill="#C4C4C4"/>
<path d="M120.062 150.125V151.66H121.246V152.498H120.062V156.43C120.062 156.684 120.115 156.875 120.221 157.004C120.326 157.129 120.506 157.191 120.76 157.191C120.885 157.191 121.057 157.168 121.275 157.121V158C120.99 158.078 120.713 158.117 120.443 158.117C119.959 158.117 119.594 157.971 119.348 157.678C119.102 157.385 118.979 156.969 118.979 156.43V152.498H117.824V151.66H118.979V150.125H120.062ZM125.582 152.633C125.418 152.605 125.24 152.592 125.049 152.592C124.338 152.592 123.855 152.895 123.602 153.5V158H122.518V151.66H123.572L123.59 152.393C123.945 151.826 124.449 151.543 125.102 151.543C125.312 151.543 125.473 151.57 125.582 151.625V152.633ZM130.264 158C130.201 157.875 130.15 157.652 130.111 157.332C129.607 157.855 129.006 158.117 128.307 158.117C127.682 158.117 127.168 157.941 126.766 157.59C126.367 157.234 126.168 156.785 126.168 156.242C126.168 155.582 126.418 155.07 126.918 154.707C127.422 154.34 128.129 154.156 129.039 154.156H130.094V153.658C130.094 153.279 129.98 152.979 129.754 152.756C129.527 152.529 129.193 152.416 128.752 152.416C128.365 152.416 128.041 152.514 127.779 152.709C127.518 152.904 127.387 153.141 127.387 153.418H126.297C126.297 153.102 126.408 152.797 126.631 152.504C126.857 152.207 127.162 151.973 127.545 151.801C127.932 151.629 128.355 151.543 128.816 151.543C129.547 151.543 130.119 151.727 130.533 152.094C130.947 152.457 131.162 152.959 131.178 153.6V156.518C131.178 157.1 131.252 157.562 131.4 157.906V158H130.264ZM128.465 157.174C128.805 157.174 129.127 157.086 129.432 156.91C129.736 156.734 129.957 156.506 130.094 156.225V154.924H129.244C127.916 154.924 127.252 155.312 127.252 156.09C127.252 156.43 127.365 156.695 127.592 156.887C127.818 157.078 128.109 157.174 128.465 157.174ZM134.055 158H132.971V151.66H134.055V158ZM132.883 149.979C132.883 149.803 132.936 149.654 133.041 149.533C133.15 149.412 133.311 149.352 133.521 149.352C133.732 149.352 133.893 149.412 134.002 149.533C134.111 149.654 134.166 149.803 134.166 149.979C134.166 150.154 134.111 150.301 134.002 150.418C133.893 150.535 133.732 150.594 133.521 150.594C133.311 150.594 133.15 150.535 133.041 150.418C132.936 150.301 132.883 150.154 132.883 149.979ZM136.82 151.66L136.855 152.457C137.34 151.848 137.973 151.543 138.754 151.543C140.094 151.543 140.77 152.299 140.781 153.811V158H139.697V153.805C139.693 153.348 139.588 153.01 139.381 152.791C139.178 152.572 138.859 152.463 138.426 152.463C138.074 152.463 137.766 152.557 137.5 152.744C137.234 152.932 137.027 153.178 136.879 153.482V158H135.795V151.66H136.82ZM143.594 158H142.51V151.66H143.594V158ZM142.422 149.979C142.422 149.803 142.475 149.654 142.58 149.533C142.689 149.412 142.85 149.352 143.061 149.352C143.271 149.352 143.432 149.412 143.541 149.533C143.65 149.654 143.705 149.803 143.705 149.979C143.705 150.154 143.65 150.301 143.541 150.418C143.432 150.535 143.271 150.594 143.061 150.594C142.85 150.594 142.689 150.535 142.58 150.418C142.475 150.301 142.422 150.154 142.422 149.979ZM146.359 151.66L146.395 152.457C146.879 151.848 147.512 151.543 148.293 151.543C149.633 151.543 150.309 152.299 150.32 153.811V158H149.236V153.805C149.232 153.348 149.127 153.01 148.92 152.791C148.717 152.572 148.398 152.463 147.965 152.463C147.613 152.463 147.305 152.557 147.039 152.744C146.773 152.932 146.566 153.178 146.418 153.482V158H145.334V151.66H146.359ZM151.697 154.777C151.697 153.789 151.926 153.004 152.383 152.422C152.84 151.836 153.445 151.543 154.199 151.543C154.973 151.543 155.576 151.816 156.01 152.363L156.062 151.66H157.053V157.848C157.053 158.668 156.809 159.314 156.32 159.787C155.836 160.26 155.184 160.496 154.363 160.496C153.906 160.496 153.459 160.398 153.021 160.203C152.584 160.008 152.25 159.74 152.02 159.4L152.582 158.75C153.047 159.324 153.615 159.611 154.287 159.611C154.814 159.611 155.225 159.463 155.518 159.166C155.814 158.869 155.963 158.451 155.963 157.912V157.367C155.529 157.867 154.938 158.117 154.188 158.117C153.445 158.117 152.844 157.818 152.383 157.221C151.926 156.623 151.697 155.809 151.697 154.777ZM152.787 154.9C152.787 155.615 152.934 156.178 153.227 156.588C153.52 156.994 153.93 157.197 154.457 157.197C155.141 157.197 155.643 156.887 155.963 156.266V153.371C155.631 152.766 155.133 152.463 154.469 152.463C153.941 152.463 153.529 152.668 153.232 153.078C152.936 153.488 152.787 154.096 152.787 154.9ZM158.658 159.699L158.043 159.277C158.41 158.766 158.602 158.238 158.617 157.695V156.717H159.678V157.566C159.678 157.961 159.58 158.355 159.385 158.75C159.193 159.145 158.951 159.461 158.658 159.699ZM119.002 170.318C119.002 170.025 118.891 169.799 118.668 169.639C118.449 169.475 118.064 169.334 117.514 169.217C116.967 169.1 116.531 168.959 116.207 168.795C115.887 168.631 115.648 168.436 115.492 168.209C115.34 167.982 115.264 167.713 115.264 167.4C115.264 166.881 115.482 166.441 115.92 166.082C116.361 165.723 116.924 165.543 117.607 165.543C118.326 165.543 118.908 165.729 119.354 166.1C119.803 166.471 120.027 166.945 120.027 167.523H118.938C118.938 167.227 118.811 166.971 118.557 166.756C118.307 166.541 117.99 166.434 117.607 166.434C117.213 166.434 116.904 166.52 116.682 166.691C116.459 166.863 116.348 167.088 116.348 167.365C116.348 167.627 116.451 167.824 116.658 167.957C116.865 168.09 117.238 168.217 117.777 168.338C118.32 168.459 118.76 168.604 119.096 168.771C119.432 168.939 119.68 169.143 119.84 169.381C120.004 169.615 120.086 169.902 120.086 170.242C120.086 170.809 119.859 171.264 119.406 171.607C118.953 171.947 118.365 172.117 117.643 172.117C117.135 172.117 116.686 172.027 116.295 171.848C115.904 171.668 115.598 171.418 115.375 171.098C115.156 170.773 115.047 170.424 115.047 170.049H116.131C116.15 170.412 116.295 170.701 116.564 170.916C116.838 171.127 117.197 171.232 117.643 171.232C118.053 171.232 118.381 171.15 118.627 170.986C118.877 170.818 119.002 170.596 119.002 170.318ZM122.969 164.125V165.66H124.152V166.498H122.969V170.43C122.969 170.684 123.021 170.875 123.127 171.004C123.232 171.129 123.412 171.191 123.666 171.191C123.791 171.191 123.963 171.168 124.182 171.121V172C123.896 172.078 123.619 172.117 123.35 172.117C122.865 172.117 122.5 171.971 122.254 171.678C122.008 171.385 121.885 170.969 121.885 170.43V166.498H120.73V165.66H121.885V164.125H122.969ZM129.338 172C129.275 171.875 129.225 171.652 129.186 171.332C128.682 171.855 128.08 172.117 127.381 172.117C126.756 172.117 126.242 171.941 125.84 171.59C125.441 171.234 125.242 170.785 125.242 170.242C125.242 169.582 125.492 169.07 125.992 168.707C126.496 168.34 127.203 168.156 128.113 168.156H129.168V167.658C129.168 167.279 129.055 166.979 128.828 166.756C128.602 166.529 128.268 166.416 127.826 166.416C127.439 166.416 127.115 166.514 126.854 166.709C126.592 166.904 126.461 167.141 126.461 167.418H125.371C125.371 167.102 125.482 166.797 125.705 166.504C125.932 166.207 126.236 165.973 126.619 165.801C127.006 165.629 127.43 165.543 127.891 165.543C128.621 165.543 129.193 165.727 129.607 166.094C130.021 166.457 130.236 166.959 130.252 167.6V170.518C130.252 171.1 130.326 171.562 130.475 171.906V172H129.338ZM127.539 171.174C127.879 171.174 128.201 171.086 128.506 170.91C128.811 170.734 129.031 170.506 129.168 170.225V168.924H128.318C126.99 168.924 126.326 169.312 126.326 170.09C126.326 170.43 126.439 170.695 126.666 170.887C126.893 171.078 127.184 171.174 127.539 171.174ZM131.693 168.777C131.693 167.789 131.922 167.004 132.379 166.422C132.836 165.836 133.441 165.543 134.195 165.543C134.969 165.543 135.572 165.816 136.006 166.363L136.059 165.66H137.049V171.848C137.049 172.668 136.805 173.314 136.316 173.787C135.832 174.26 135.18 174.496 134.359 174.496C133.902 174.496 133.455 174.398 133.018 174.203C132.58 174.008 132.246 173.74 132.016 173.4L132.578 172.75C133.043 173.324 133.611 173.611 134.283 173.611C134.811 173.611 135.221 173.463 135.514 173.166C135.811 172.869 135.959 172.451 135.959 171.912V171.367C135.525 171.867 134.934 172.117 134.184 172.117C133.441 172.117 132.84 171.818 132.379 171.221C131.922 170.623 131.693 169.809 131.693 168.777ZM132.783 168.9C132.783 169.615 132.93 170.178 133.223 170.588C133.516 170.994 133.926 171.197 134.453 171.197C135.137 171.197 135.639 170.887 135.959 170.266V167.371C135.627 166.766 135.129 166.463 134.465 166.463C133.938 166.463 133.525 166.668 133.229 167.078C132.932 167.488 132.783 168.096 132.783 168.9ZM141.32 172.117C140.461 172.117 139.762 171.836 139.223 171.273C138.684 170.707 138.414 169.951 138.414 169.006V168.807C138.414 168.178 138.533 167.617 138.771 167.125C139.014 166.629 139.35 166.242 139.779 165.965C140.213 165.684 140.682 165.543 141.186 165.543C142.01 165.543 142.65 165.814 143.107 166.357C143.564 166.9 143.793 167.678 143.793 168.689V169.141H139.498C139.514 169.766 139.695 170.271 140.043 170.658C140.395 171.041 140.84 171.232 141.379 171.232C141.762 171.232 142.086 171.154 142.352 170.998C142.617 170.842 142.85 170.635 143.049 170.377L143.711 170.893C143.18 171.709 142.383 172.117 141.32 172.117ZM141.186 166.434C140.748 166.434 140.381 166.594 140.084 166.914C139.787 167.23 139.604 167.676 139.533 168.25H142.709V168.168C142.678 167.617 142.529 167.191 142.264 166.891C141.998 166.586 141.639 166.434 141.186 166.434ZM152.986 167.23H148.1V166.287H152.986V167.23ZM152.986 169.662H148.1V168.725H152.986V169.662ZM162.83 168.361C162.83 169.631 162.613 170.574 162.18 171.191C161.746 171.809 161.068 172.117 160.146 172.117C159.236 172.117 158.562 171.816 158.125 171.215C157.688 170.609 157.461 169.707 157.445 168.508V167.061C157.445 165.807 157.662 164.875 158.096 164.266C158.529 163.656 159.209 163.352 160.135 163.352C161.053 163.352 161.729 163.646 162.162 164.236C162.596 164.822 162.818 165.729 162.83 166.955V168.361ZM161.746 166.879C161.746 165.961 161.617 165.293 161.359 164.875C161.102 164.453 160.693 164.242 160.135 164.242C159.58 164.242 159.176 164.451 158.922 164.869C158.668 165.287 158.537 165.93 158.529 166.797V168.531C158.529 169.453 158.662 170.135 158.928 170.576C159.197 171.014 159.604 171.232 160.146 171.232C160.682 171.232 161.078 171.025 161.336 170.611C161.598 170.197 161.734 169.545 161.746 168.654V166.879Z" fill="black"/>
<rect width="71" height="69" fill="black" fill-opacity="0" transform="translate(247 124)"/>
<rect x="247" y="124" width="71" height="69" fill="#C4C4C4"/>
<path d="M263.062 148.125V149.66H264.246V150.498H263.062V154.43C263.062 154.684 263.115 154.875 263.221 155.004C263.326 155.129 263.506 155.191 263.76 155.191C263.885 155.191 264.057 155.168 264.275 155.121V156C263.99 156.078 263.713 156.117 263.443 156.117C262.959 156.117 262.594 155.971 262.348 155.678C262.102 155.385 261.979 154.969 261.979 154.43V150.498H260.824V149.66H261.979V148.125H263.062ZM268.582 150.633C268.418 150.605 268.24 150.592 268.049 150.592C267.338 150.592 266.855 150.895 266.602 151.5V156H265.518V149.66H266.572L266.59 150.393C266.945 149.826 267.449 149.543 268.102 149.543C268.312 149.543 268.473 149.57 268.582 149.625V150.633ZM273.264 156C273.201 155.875 273.15 155.652 273.111 155.332C272.607 155.855 272.006 156.117 271.307 156.117C270.682 156.117 270.168 155.941 269.766 155.59C269.367 155.234 269.168 154.785 269.168 154.242C269.168 153.582 269.418 153.07 269.918 152.707C270.422 152.34 271.129 152.156 272.039 152.156H273.094V151.658C273.094 151.279 272.98 150.979 272.754 150.756C272.527 150.529 272.193 150.416 271.752 150.416C271.365 150.416 271.041 150.514 270.779 150.709C270.518 150.904 270.387 151.141 270.387 151.418H269.297C269.297 151.102 269.408 150.797 269.631 150.504C269.857 150.207 270.162 149.973 270.545 149.801C270.932 149.629 271.355 149.543 271.816 149.543C272.547 149.543 273.119 149.727 273.533 150.094C273.947 150.457 274.162 150.959 274.178 151.6V154.518C274.178 155.1 274.252 155.562 274.4 155.906V156H273.264ZM271.465 155.174C271.805 155.174 272.127 155.086 272.432 154.91C272.736 154.734 272.957 154.506 273.094 154.225V152.924H272.244C270.916 152.924 270.252 153.312 270.252 154.09C270.252 154.43 270.365 154.695 270.592 154.887C270.818 155.078 271.109 155.174 271.465 155.174ZM277.055 156H275.971V149.66H277.055V156ZM275.883 147.979C275.883 147.803 275.936 147.654 276.041 147.533C276.15 147.412 276.311 147.352 276.521 147.352C276.732 147.352 276.893 147.412 277.002 147.533C277.111 147.654 277.166 147.803 277.166 147.979C277.166 148.154 277.111 148.301 277.002 148.418C276.893 148.535 276.732 148.594 276.521 148.594C276.311 148.594 276.15 148.535 276.041 148.418C275.936 148.301 275.883 148.154 275.883 147.979ZM279.82 149.66L279.855 150.457C280.34 149.848 280.973 149.543 281.754 149.543C283.094 149.543 283.77 150.299 283.781 151.811V156H282.697V151.805C282.693 151.348 282.588 151.01 282.381 150.791C282.178 150.572 281.859 150.463 281.426 150.463C281.074 150.463 280.766 150.557 280.5 150.744C280.234 150.932 280.027 151.178 279.879 151.482V156H278.795V149.66H279.82ZM286.594 156H285.51V149.66H286.594V156ZM285.422 147.979C285.422 147.803 285.475 147.654 285.58 147.533C285.689 147.412 285.85 147.352 286.061 147.352C286.271 147.352 286.432 147.412 286.541 147.533C286.65 147.654 286.705 147.803 286.705 147.979C286.705 148.154 286.65 148.301 286.541 148.418C286.432 148.535 286.271 148.594 286.061 148.594C285.85 148.594 285.689 148.535 285.58 148.418C285.475 148.301 285.422 148.154 285.422 147.979ZM289.359 149.66L289.395 150.457C289.879 149.848 290.512 149.543 291.293 149.543C292.633 149.543 293.309 150.299 293.32 151.811V156H292.236V151.805C292.232 151.348 292.127 151.01 291.92 150.791C291.717 150.572 291.398 150.463 290.965 150.463C290.613 150.463 290.305 150.557 290.039 150.744C289.773 150.932 289.566 151.178 289.418 151.482V156H288.334V149.66H289.359ZM294.697 152.777C294.697 151.789 294.926 151.004 295.383 150.422C295.84 149.836 296.445 149.543 297.199 149.543C297.973 149.543 298.576 149.816 299.01 150.363L299.062 149.66H300.053V155.848C300.053 156.668 299.809 157.314 299.32 157.787C298.836 158.26 298.184 158.496 297.363 158.496C296.906 158.496 296.459 158.398 296.021 158.203C295.584 158.008 295.25 157.74 295.02 157.4L295.582 156.75C296.047 157.324 296.615 157.611 297.287 157.611C297.814 157.611 298.225 157.463 298.518 157.166C298.814 156.869 298.963 156.451 298.963 155.912V155.367C298.529 155.867 297.938 156.117 297.188 156.117C296.445 156.117 295.844 155.818 295.383 155.221C294.926 154.623 294.697 153.809 294.697 152.777ZM295.787 152.9C295.787 153.615 295.934 154.178 296.227 154.588C296.52 154.994 296.93 155.197 297.457 155.197C298.141 155.197 298.643 154.887 298.963 154.266V151.371C298.631 150.766 298.133 150.463 297.469 150.463C296.941 150.463 296.529 150.668 296.232 151.078C295.936 151.488 295.787 152.096 295.787 152.9ZM301.658 157.699L301.043 157.277C301.41 156.766 301.602 156.238 301.617 155.695V154.717H302.678V155.566C302.678 155.961 302.58 156.355 302.385 156.75C302.193 157.145 301.951 157.461 301.658 157.699ZM262.002 168.318C262.002 168.025 261.891 167.799 261.668 167.639C261.449 167.475 261.064 167.334 260.514 167.217C259.967 167.1 259.531 166.959 259.207 166.795C258.887 166.631 258.648 166.436 258.492 166.209C258.34 165.982 258.264 165.713 258.264 165.4C258.264 164.881 258.482 164.441 258.92 164.082C259.361 163.723 259.924 163.543 260.607 163.543C261.326 163.543 261.908 163.729 262.354 164.1C262.803 164.471 263.027 164.945 263.027 165.523H261.938C261.938 165.227 261.811 164.971 261.557 164.756C261.307 164.541 260.99 164.434 260.607 164.434C260.213 164.434 259.904 164.52 259.682 164.691C259.459 164.863 259.348 165.088 259.348 165.365C259.348 165.627 259.451 165.824 259.658 165.957C259.865 166.09 260.238 166.217 260.777 166.338C261.32 166.459 261.76 166.604 262.096 166.771C262.432 166.939 262.68 167.143 262.84 167.381C263.004 167.615 263.086 167.902 263.086 168.242C263.086 168.809 262.859 169.264 262.406 169.607C261.953 169.947 261.365 170.117 260.643 170.117C260.135 170.117 259.686 170.027 259.295 169.848C258.904 169.668 258.598 169.418 258.375 169.098C258.156 168.773 258.047 168.424 258.047 168.049H259.131C259.15 168.412 259.295 168.701 259.564 168.916C259.838 169.127 260.197 169.232 260.643 169.232C261.053 169.232 261.381 169.15 261.627 168.986C261.877 168.818 262.002 168.596 262.002 168.318ZM265.969 162.125V163.66H267.152V164.498H265.969V168.43C265.969 168.684 266.021 168.875 266.127 169.004C266.232 169.129 266.412 169.191 266.666 169.191C266.791 169.191 266.963 169.168 267.182 169.121V170C266.896 170.078 266.619 170.117 266.35 170.117C265.865 170.117 265.5 169.971 265.254 169.678C265.008 169.385 264.885 168.969 264.885 168.43V164.498H263.73V163.66H264.885V162.125H265.969ZM272.338 170C272.275 169.875 272.225 169.652 272.186 169.332C271.682 169.855 271.08 170.117 270.381 170.117C269.756 170.117 269.242 169.941 268.84 169.59C268.441 169.234 268.242 168.785 268.242 168.242C268.242 167.582 268.492 167.07 268.992 166.707C269.496 166.34 270.203 166.156 271.113 166.156H272.168V165.658C272.168 165.279 272.055 164.979 271.828 164.756C271.602 164.529 271.268 164.416 270.826 164.416C270.439 164.416 270.115 164.514 269.854 164.709C269.592 164.904 269.461 165.141 269.461 165.418H268.371C268.371 165.102 268.482 164.797 268.705 164.504C268.932 164.207 269.236 163.973 269.619 163.801C270.006 163.629 270.43 163.543 270.891 163.543C271.621 163.543 272.193 163.727 272.607 164.094C273.021 164.457 273.236 164.959 273.252 165.6V168.518C273.252 169.1 273.326 169.562 273.475 169.906V170H272.338ZM270.539 169.174C270.879 169.174 271.201 169.086 271.506 168.91C271.811 168.734 272.031 168.506 272.168 168.225V166.924H271.318C269.99 166.924 269.326 167.312 269.326 168.09C269.326 168.43 269.439 168.695 269.666 168.887C269.893 169.078 270.184 169.174 270.539 169.174ZM274.693 166.777C274.693 165.789 274.922 165.004 275.379 164.422C275.836 163.836 276.441 163.543 277.195 163.543C277.969 163.543 278.572 163.816 279.006 164.363L279.059 163.66H280.049V169.848C280.049 170.668 279.805 171.314 279.316 171.787C278.832 172.26 278.18 172.496 277.359 172.496C276.902 172.496 276.455 172.398 276.018 172.203C275.58 172.008 275.246 171.74 275.016 171.4L275.578 170.75C276.043 171.324 276.611 171.611 277.283 171.611C277.811 171.611 278.221 171.463 278.514 171.166C278.811 170.869 278.959 170.451 278.959 169.912V169.367C278.525 169.867 277.934 170.117 277.184 170.117C276.441 170.117 275.84 169.818 275.379 169.221C274.922 168.623 274.693 167.809 274.693 166.777ZM275.783 166.9C275.783 167.615 275.93 168.178 276.223 168.588C276.516 168.994 276.926 169.197 277.453 169.197C278.137 169.197 278.639 168.887 278.959 168.266V165.371C278.627 164.766 278.129 164.463 277.465 164.463C276.938 164.463 276.525 164.668 276.229 165.078C275.932 165.488 275.783 166.096 275.783 166.9ZM284.32 170.117C283.461 170.117 282.762 169.836 282.223 169.273C281.684 168.707 281.414 167.951 281.414 167.006V166.807C281.414 166.178 281.533 165.617 281.771 165.125C282.014 164.629 282.35 164.242 282.779 163.965C283.213 163.684 283.682 163.543 284.186 163.543C285.01 163.543 285.65 163.814 286.107 164.357C286.564 164.9 286.793 165.678 286.793 166.689V167.141H282.498C282.514 167.766 282.695 168.271 283.043 168.658C283.395 169.041 283.84 169.232 284.379 169.232C284.762 169.232 285.086 169.154 285.352 168.998C285.617 168.842 285.85 168.635 286.049 168.377L286.711 168.893C286.18 169.709 285.383 170.117 284.32 170.117ZM284.186 164.434C283.748 164.434 283.381 164.594 283.084 164.914C282.787 165.23 282.604 165.676 282.533 166.25H285.709V166.168C285.678 165.617 285.529 165.191 285.264 164.891C284.998 164.586 284.639 164.434 284.186 164.434ZM295.986 165.23H291.1V164.287H295.986V165.23ZM295.986 167.662H291.1V166.725H295.986V167.662ZM304.043 170H302.953V162.775L300.768 163.578V162.594L303.873 161.428H304.043V170Z" fill="black"/>
<rect width="71" height="69" fill="black" fill-opacity="0" transform="translate(392 67)"/>
<rect x="392" y="67" width="71" height="69" fill="#C4C4C4"/>
<path d="M411.244 108H410.16V99H411.244V108ZM416.898 108C416.836 107.875 416.785 107.652 416.746 107.332C416.242 107.855 415.641 108.117 414.941 108.117C414.316 108.117 413.803 107.941 413.4 107.59C413.002 107.234 412.803 106.785 412.803 106.242C412.803 105.582 413.053 105.07 413.553 104.707C414.057 104.34 414.764 104.156 415.674 104.156H416.729V103.658C416.729 103.279 416.615 102.979 416.389 102.756C416.162 102.529 415.828 102.416 415.387 102.416C415 102.416 414.676 102.514 414.414 102.709C414.152 102.904 414.021 103.141 414.021 103.418H412.932C412.932 103.102 413.043 102.797 413.266 102.504C413.492 102.207 413.797 101.973 414.18 101.801C414.566 101.629 414.99 101.543 415.451 101.543C416.182 101.543 416.754 101.727 417.168 102.094C417.582 102.457 417.797 102.959 417.812 103.6V106.518C417.812 107.1 417.887 107.562 418.035 107.906V108H416.898ZM415.1 107.174C415.439 107.174 415.762 107.086 416.066 106.91C416.371 106.734 416.592 106.506 416.729 106.225V104.924H415.879C414.551 104.924 413.887 105.312 413.887 106.09C413.887 106.43 414 106.695 414.227 106.887C414.453 107.078 414.744 107.174 415.1 107.174ZM424.867 104.9C424.867 105.865 424.646 106.643 424.205 107.232C423.764 107.822 423.166 108.117 422.412 108.117C421.643 108.117 421.037 107.873 420.596 107.385V110.438H419.512V101.66H420.502L420.555 102.363C420.996 101.816 421.609 101.543 422.395 101.543C423.156 101.543 423.758 101.83 424.199 102.404C424.645 102.979 424.867 103.777 424.867 104.801V104.9ZM423.783 104.777C423.783 104.062 423.631 103.498 423.326 103.084C423.021 102.67 422.604 102.463 422.072 102.463C421.416 102.463 420.924 102.754 420.596 103.336V106.365C420.92 106.943 421.416 107.232 422.084 107.232C422.604 107.232 423.016 107.027 423.32 106.617C423.629 106.203 423.783 105.59 423.783 104.777ZM429.941 106.318C429.941 106.025 429.83 105.799 429.607 105.639C429.389 105.475 429.004 105.334 428.453 105.217C427.906 105.1 427.471 104.959 427.146 104.795C426.826 104.631 426.588 104.436 426.432 104.209C426.279 103.982 426.203 103.713 426.203 103.4C426.203 102.881 426.422 102.441 426.859 102.082C427.301 101.723 427.863 101.543 428.547 101.543C429.266 101.543 429.848 101.729 430.293 102.1C430.742 102.471 430.967 102.945 430.967 103.523H429.877C429.877 103.227 429.75 102.971 429.496 102.756C429.246 102.541 428.93 102.434 428.547 102.434C428.152 102.434 427.844 102.52 427.621 102.691C427.398 102.863 427.287 103.088 427.287 103.365C427.287 103.627 427.391 103.824 427.598 103.957C427.805 104.09 428.178 104.217 428.717 104.338C429.26 104.459 429.699 104.604 430.035 104.771C430.371 104.939 430.619 105.143 430.779 105.381C430.943 105.615 431.025 105.902 431.025 106.242C431.025 106.809 430.799 107.264 430.346 107.607C429.893 107.947 429.305 108.117 428.582 108.117C428.074 108.117 427.625 108.027 427.234 107.848C426.844 107.668 426.537 107.418 426.314 107.098C426.096 106.773 425.986 106.424 425.986 106.049H427.07C427.09 106.412 427.234 106.701 427.504 106.916C427.777 107.127 428.137 107.232 428.582 107.232C428.992 107.232 429.32 107.15 429.566 106.986C429.816 106.818 429.941 106.596 429.941 106.318ZM435.068 108.117C434.209 108.117 433.51 107.836 432.971 107.273C432.432 106.707 432.162 105.951 432.162 105.006V104.807C432.162 104.178 432.281 103.617 432.52 103.125C432.762 102.629 433.098 102.242 433.527 101.965C433.961 101.684 434.43 101.543 434.934 101.543C435.758 101.543 436.398 101.814 436.855 102.357C437.312 102.9 437.541 103.678 437.541 104.689V105.141H433.246C433.262 105.766 433.443 106.271 433.791 106.658C434.143 107.041 434.588 107.232 435.127 107.232C435.51 107.232 435.834 107.154 436.1 106.998C436.365 106.842 436.598 106.635 436.797 106.377L437.459 106.893C436.928 107.709 436.131 108.117 435.068 108.117ZM434.934 102.434C434.496 102.434 434.129 102.594 433.832 102.914C433.535 103.23 433.352 103.676 433.281 104.25H436.457V104.168C436.426 103.617 436.277 103.191 436.012 102.891C435.746 102.586 435.387 102.434 434.934 102.434ZM438.537 104.777C438.537 103.805 438.768 103.023 439.229 102.434C439.689 101.84 440.293 101.543 441.039 101.543C441.781 101.543 442.369 101.797 442.803 102.305V99H443.887V108H442.891L442.838 107.32C442.404 107.852 441.801 108.117 441.027 108.117C440.293 108.117 439.693 107.816 439.229 107.215C438.768 106.613 438.537 105.828 438.537 104.859V104.777ZM439.621 104.9C439.621 105.619 439.77 106.182 440.066 106.588C440.363 106.994 440.773 107.197 441.297 107.197C441.984 107.197 442.486 106.889 442.803 106.271V103.359C442.479 102.762 441.98 102.463 441.309 102.463C440.777 102.463 440.363 102.668 440.066 103.078C439.77 103.488 439.621 104.096 439.621 104.9Z" fill="black"/>
<rect x="392" y="67" width="71" height="69" fill="#C4C4C4"/>
<path d="M411.244 108H410.16V99H411.244V108ZM416.898 108C416.836 107.875 416.785 107.652 416.746 107.332C416.242 107.855 415.641 108.117 414.941 108.117C414.316 108.117 413.803 107.941 413.4 107.59C413.002 107.234 412.803 106.785 412.803 106.242C412.803 105.582 413.053 105.07 413.553 104.707C414.057 104.34 414.764 104.156 415.674 104.156H416.729V103.658C416.729 103.279 416.615 102.979 416.389 102.756C416.162 102.529 415.828 102.416 415.387 102.416C415 102.416 414.676 102.514 414.414 102.709C414.152 102.904 414.021 103.141 414.021 103.418H412.932C412.932 103.102 413.043 102.797 413.266 102.504C413.492 102.207 413.797 101.973 414.18 101.801C414.566 101.629 414.99 101.543 415.451 101.543C416.182 101.543 416.754 101.727 417.168 102.094C417.582 102.457 417.797 102.959 417.812 103.6V106.518C417.812 107.1 417.887 107.562 418.035 107.906V108H416.898ZM415.1 107.174C415.439 107.174 415.762 107.086 416.066 106.91C416.371 106.734 416.592 106.506 416.729 106.225V104.924H415.879C414.551 104.924 413.887 105.312 413.887 106.09C413.887 106.43 414 106.695 414.227 106.887C414.453 107.078 414.744 107.174 415.1 107.174ZM424.867 104.9C424.867 105.865 424.646 106.643 424.205 107.232C423.764 107.822 423.166 108.117 422.412 108.117C421.643 108.117 421.037 107.873 420.596 107.385V110.438H419.512V101.66H420.502L420.555 102.363C420.996 101.816 421.609 101.543 422.395 101.543C423.156 101.543 423.758 101.83 424.199 102.404C424.645 102.979 424.867 103.777 424.867 104.801V104.9ZM423.783 104.777C423.783 104.062 423.631 103.498 423.326 103.084C423.021 102.67 422.604 102.463 422.072 102.463C421.416 102.463 420.924 102.754 420.596 103.336V106.365C420.92 106.943 421.416 107.232 422.084 107.232C422.604 107.232 423.016 107.027 423.32 106.617C423.629 106.203 423.783 105.59 423.783 104.777ZM429.941 106.318C429.941 106.025 429.83 105.799 429.607 105.639C429.389 105.475 429.004 105.334 428.453 105.217C427.906 105.1 427.471 104.959 427.146 104.795C426.826 104.631 426.588 104.436 426.432 104.209C426.279 103.982 426.203 103.713 426.203 103.4C426.203 102.881 426.422 102.441 426.859 102.082C427.301 101.723 427.863 101.543 428.547 101.543C429.266 101.543 429.848 101.729 430.293 102.1C430.742 102.471 430.967 102.945 430.967 103.523H429.877C429.877 103.227 429.75 102.971 429.496 102.756C429.246 102.541 428.93 102.434 428.547 102.434C428.152 102.434 427.844 102.52 427.621 102.691C427.398 102.863 427.287 103.088 427.287 103.365C427.287 103.627 427.391 103.824 427.598 103.957C427.805 104.09 428.178 104.217 428.717 104.338C429.26 104.459 429.699 104.604 430.035 104.771C430.371 104.939 430.619 105.143 430.779 105.381C430.943 105.615 431.025 105.902 431.025 106.242C431.025 106.809 430.799 107.264 430.346 107.607C429.893 107.947 429.305 108.117 428.582 108.117C428.074 108.117 427.625 108.027 427.234 107.848C426.844 107.668 426.537 107.418 426.314 107.098C426.096 106.773 425.986 106.424 425.986 106.049H427.07C427.09 106.412 427.234 106.701 427.504 106.916C427.777 107.127 428.137 107.232 428.582 107.232C428.992 107.232 429.32 107.15 429.566 106.986C429.816 106.818 429.941 106.596 429.941 106.318ZM435.068 108.117C434.209 108.117 433.51 107.836 432.971 107.273C432.432 106.707 432.162 105.951 432.162 105.006V104.807C432.162 104.178 432.281 103.617 432.52 103.125C432.762 102.629 433.098 102.242 433.527 101.965C433.961 101.684 434.43 101.543 434.934 101.543C435.758 101.543 436.398 101.814 436.855 102.357C437.312 102.9 437.541 103.678 437.541 104.689V105.141H433.246C433.262 105.766 433.443 106.271 433.791 106.658C434.143 107.041 434.588 107.232 435.127 107.232C435.51 107.232 435.834 107.154 436.1 106.998C436.365 106.842 436.598 106.635 436.797 106.377L437.459 106.893C436.928 107.709 436.131 108.117 435.068 108.117ZM434.934 102.434C434.496 102.434 434.129 102.594 433.832 102.914C433.535 103.23 433.352 103.676 433.281 104.25H436.457V104.168C436.426 103.617 436.277 103.191 436.012 102.891C435.746 102.586 435.387 102.434 434.934 102.434ZM438.537 104.777C438.537 103.805 438.768 103.023 439.229 102.434C439.689 101.84 440.293 101.543 441.039 101.543C441.781 101.543 442.369 101.797 442.803 102.305V99H443.887V108H442.891L442.838 107.32C442.404 107.852 441.801 108.117 441.027 108.117C440.293 108.117 439.693 107.816 439.229 107.215C438.768 106.613 438.537 105.828 438.537 104.859V104.777ZM439.621 104.9C439.621 105.619 439.77 106.182 440.066 106.588C440.363 106.994 440.773 107.197 441.297 107.197C441.984 107.197 442.486 106.889 442.803 106.271V103.359C442.479 102.762 441.98 102.463 441.309 102.463C440.777 102.463 440.363 102.668 440.066 103.078C439.77 103.488 439.621 104.096 439.621 104.9Z" fill="black"/>
<rect width="71" height="69" fill="black" fill-opacity="0" transform="translate(392 215)"/>
<rect x="392" y="215" width="71" height="69" fill="#C4C4C4"/>
<path d="M412.293 250.633C412.129 250.605 411.951 250.592 411.76 250.592C411.049 250.592 410.566 250.895 410.312 251.5V256H409.229V249.66H410.283L410.301 250.393C410.656 249.826 411.16 249.543 411.812 249.543C412.023 249.543 412.184 249.57 412.293 249.625V250.633ZM415.809 256.117C414.949 256.117 414.25 255.836 413.711 255.273C413.172 254.707 412.902 253.951 412.902 253.006V252.807C412.902 252.178 413.021 251.617 413.26 251.125C413.502 250.629 413.838 250.242 414.268 249.965C414.701 249.684 415.17 249.543 415.674 249.543C416.498 249.543 417.139 249.814 417.596 250.357C418.053 250.9 418.281 251.678 418.281 252.689V253.141H413.986C414.002 253.766 414.184 254.271 414.531 254.658C414.883 255.041 415.328 255.232 415.867 255.232C416.25 255.232 416.574 255.154 416.84 254.998C417.105 254.842 417.338 254.635 417.537 254.377L418.199 254.893C417.668 255.709 416.871 256.117 415.809 256.117ZM415.674 250.434C415.236 250.434 414.869 250.594 414.572 250.914C414.275 251.23 414.092 251.676 414.021 252.25H417.197V252.168C417.166 251.617 417.018 251.191 416.752 250.891C416.486 250.586 416.127 250.434 415.674 250.434ZM419.283 252.777C419.283 251.789 419.512 251.004 419.969 250.422C420.426 249.836 421.031 249.543 421.785 249.543C422.559 249.543 423.162 249.816 423.596 250.363L423.648 249.66H424.639V255.848C424.639 256.668 424.395 257.314 423.906 257.787C423.422 258.26 422.77 258.496 421.949 258.496C421.492 258.496 421.045 258.398 420.607 258.203C420.17 258.008 419.836 257.74 419.605 257.4L420.168 256.75C420.633 257.324 421.201 257.611 421.873 257.611C422.4 257.611 422.811 257.463 423.104 257.166C423.4 256.869 423.549 256.451 423.549 255.912V255.367C423.115 255.867 422.523 256.117 421.773 256.117C421.031 256.117 420.43 255.818 419.969 255.221C419.512 254.623 419.283 253.809 419.283 252.777ZM420.373 252.9C420.373 253.615 420.52 254.178 420.812 254.588C421.105 254.994 421.516 255.197 422.043 255.197C422.727 255.197 423.229 254.887 423.549 254.266V251.371C423.217 250.766 422.719 250.463 422.055 250.463C421.527 250.463 421.115 250.668 420.818 251.078C420.521 251.488 420.373 252.096 420.373 252.9ZM430.193 255.373C429.771 255.869 429.152 256.117 428.336 256.117C427.66 256.117 427.145 255.922 426.789 255.531C426.438 255.137 426.26 254.555 426.256 253.785V249.66H427.34V253.756C427.34 254.717 427.73 255.197 428.512 255.197C429.34 255.197 429.891 254.889 430.164 254.271V249.66H431.248V256H430.217L430.193 255.373ZM434.078 256H432.994V247H434.078V256ZM439.732 256C439.67 255.875 439.619 255.652 439.58 255.332C439.076 255.855 438.475 256.117 437.775 256.117C437.15 256.117 436.637 255.941 436.234 255.59C435.836 255.234 435.637 254.785 435.637 254.242C435.637 253.582 435.887 253.07 436.387 252.707C436.891 252.34 437.598 252.156 438.508 252.156H439.562V251.658C439.562 251.279 439.449 250.979 439.223 250.756C438.996 250.529 438.662 250.416 438.221 250.416C437.834 250.416 437.51 250.514 437.248 250.709C436.986 250.904 436.855 251.141 436.855 251.418H435.766C435.766 251.102 435.877 250.797 436.1 250.504C436.326 250.207 436.631 249.973 437.014 249.801C437.4 249.629 437.824 249.543 438.285 249.543C439.016 249.543 439.588 249.727 440.002 250.094C440.416 250.457 440.631 250.959 440.646 251.6V254.518C440.646 255.1 440.721 255.562 440.869 255.906V256H439.732ZM437.934 255.174C438.273 255.174 438.596 255.086 438.9 254.91C439.205 254.734 439.426 254.506 439.562 254.225V252.924H438.713C437.385 252.924 436.721 253.312 436.721 254.09C436.721 254.43 436.834 254.695 437.061 254.887C437.287 255.078 437.578 255.174 437.934 255.174ZM445.41 250.633C445.246 250.605 445.068 250.592 444.877 250.592C444.166 250.592 443.684 250.895 443.43 251.5V256H442.346V249.66H443.4L443.418 250.393C443.773 249.826 444.277 249.543 444.93 249.543C445.141 249.543 445.301 249.57 445.41 249.625V250.633Z" fill="black"/>
<rect width="72" height="18" fill="black" fill-opacity="0" transform="translate(174 130)"/>
<path d="M246.354 148.354C246.549 148.158 246.549 147.842 246.354 147.646L243.172 144.464C242.976 144.269 242.66 144.269 242.464 144.464C242.269 144.66 242.269 144.976 242.464 145.172L245.293 148L242.464 150.828C242.269 151.024 242.269 151.34 242.464 151.536C242.66 151.731 242.976 151.731 243.172 151.536L246.354 148.354ZM174 148.5H246V147.5H174V148.5Z" fill="black"/>
<path d="M196.963 137.777C196.963 136.789 197.191 136.004 197.648 135.422C198.105 134.836 198.711 134.543 199.465 134.543C200.238 134.543 200.842 134.816 201.275 135.363L201.328 134.66H202.318V140.848C202.318 141.668 202.074 142.314 201.586 142.787C201.102 143.26 200.449 143.496 199.629 143.496C199.172 143.496 198.725 143.398 198.287 143.203C197.85 143.008 197.516 142.74 197.285 142.4L197.848 141.75C198.312 142.324 198.881 142.611 199.553 142.611C200.08 142.611 200.49 142.463 200.783 142.166C201.08 141.869 201.229 141.451 201.229 140.912V140.367C200.795 140.867 200.203 141.117 199.453 141.117C198.711 141.117 198.109 140.818 197.648 140.221C197.191 139.623 196.963 138.809 196.963 137.777ZM198.053 137.9C198.053 138.615 198.199 139.178 198.492 139.588C198.785 139.994 199.195 140.197 199.723 140.197C200.406 140.197 200.908 139.887 201.229 139.266V136.371C200.896 135.766 200.398 135.463 199.734 135.463C199.207 135.463 198.795 135.668 198.498 136.078C198.201 136.488 198.053 137.096 198.053 137.9ZM203.672 137.771C203.672 137.15 203.793 136.592 204.035 136.096C204.281 135.6 204.621 135.217 205.055 134.947C205.492 134.678 205.99 134.543 206.549 134.543C207.412 134.543 208.109 134.842 208.641 135.439C209.176 136.037 209.443 136.832 209.443 137.824V137.9C209.443 138.518 209.324 139.072 209.086 139.564C208.852 140.053 208.514 140.434 208.072 140.707C207.635 140.98 207.131 141.117 206.561 141.117C205.701 141.117 205.004 140.818 204.469 140.221C203.938 139.623 203.672 138.832 203.672 137.848V137.771ZM204.762 137.9C204.762 138.604 204.924 139.168 205.248 139.594C205.576 140.02 206.014 140.232 206.561 140.232C207.111 140.232 207.549 140.018 207.873 139.588C208.197 139.154 208.359 138.549 208.359 137.771C208.359 137.076 208.193 136.514 207.861 136.084C207.533 135.65 207.096 135.434 206.549 135.434C206.014 135.434 205.582 135.646 205.254 136.072C204.926 136.498 204.762 137.107 204.762 137.9ZM210.516 137.771C210.516 137.15 210.637 136.592 210.879 136.096C211.125 135.6 211.465 135.217 211.898 134.947C212.336 134.678 212.834 134.543 213.393 134.543C214.256 134.543 214.953 134.842 215.484 135.439C216.02 136.037 216.287 136.832 216.287 137.824V137.9C216.287 138.518 216.168 139.072 215.93 139.564C215.695 140.053 215.357 140.434 214.916 140.707C214.479 140.98 213.975 141.117 213.404 141.117C212.545 141.117 211.848 140.818 211.312 140.221C210.781 139.623 210.516 138.832 210.516 137.848V137.771ZM211.605 137.9C211.605 138.604 211.768 139.168 212.092 139.594C212.42 140.02 212.857 140.232 213.404 140.232C213.955 140.232 214.393 140.018 214.717 139.588C215.041 139.154 215.203 138.549 215.203 137.771C215.203 137.076 215.037 136.514 214.705 136.084C214.377 135.65 213.939 135.434 213.393 135.434C212.857 135.434 212.426 135.646 212.098 136.072C211.77 136.498 211.605 137.107 211.605 137.9ZM217.383 137.777C217.383 136.805 217.613 136.023 218.074 135.434C218.535 134.84 219.139 134.543 219.885 134.543C220.627 134.543 221.215 134.797 221.648 135.305V132H222.732V141H221.736L221.684 140.32C221.25 140.852 220.646 141.117 219.873 141.117C219.139 141.117 218.539 140.816 218.074 140.215C217.613 139.613 217.383 138.828 217.383 137.859V137.777ZM218.467 137.9C218.467 138.619 218.615 139.182 218.912 139.588C219.209 139.994 219.619 140.197 220.143 140.197C220.83 140.197 221.332 139.889 221.648 139.271V136.359C221.324 135.762 220.826 135.463 220.154 135.463C219.623 135.463 219.209 135.668 218.912 136.078C218.615 136.488 218.467 137.096 218.467 137.9Z" fill="black"/>
<path d="M243.07 263.117C242.211 263.117 241.512 262.836 240.973 262.273C240.434 261.707 240.164 260.951 240.164 260.006V259.807C240.164 259.178 240.283 258.617 240.521 258.125C240.764 257.629 241.1 257.242 241.529 256.965C241.963 256.684 242.432 256.543 242.936 256.543C243.76 256.543 244.4 256.814 244.857 257.357C245.314 257.9 245.543 258.678 245.543 259.689V260.141H241.248C241.264 260.766 241.445 261.271 241.793 261.658C242.145 262.041 242.59 262.232 243.129 262.232C243.512 262.232 243.836 262.154 244.102 261.998C244.367 261.842 244.6 261.635 244.799 261.377L245.461 261.893C244.93 262.709 244.133 263.117 243.07 263.117ZM242.936 257.434C242.498 257.434 242.131 257.594 241.834 257.914C241.537 258.23 241.354 258.676 241.283 259.25H244.459V259.168C244.428 258.617 244.279 258.191 244.014 257.891C243.748 257.586 243.389 257.434 242.936 257.434ZM250.717 263C250.654 262.875 250.604 262.652 250.564 262.332C250.061 262.855 249.459 263.117 248.76 263.117C248.135 263.117 247.621 262.941 247.219 262.59C246.82 262.234 246.621 261.785 246.621 261.242C246.621 260.582 246.871 260.07 247.371 259.707C247.875 259.34 248.582 259.156 249.492 259.156H250.547V258.658C250.547 258.279 250.434 257.979 250.207 257.756C249.98 257.529 249.646 257.416 249.205 257.416C248.818 257.416 248.494 257.514 248.232 257.709C247.971 257.904 247.84 258.141 247.84 258.418H246.75C246.75 258.102 246.861 257.797 247.084 257.504C247.311 257.207 247.615 256.973 247.998 256.801C248.385 256.629 248.809 256.543 249.27 256.543C250 256.543 250.572 256.727 250.986 257.094C251.4 257.457 251.615 257.959 251.631 258.6V261.518C251.631 262.1 251.705 262.562 251.854 262.906V263H250.717ZM248.918 262.174C249.258 262.174 249.58 262.086 249.885 261.91C250.189 261.734 250.41 261.506 250.547 261.225V259.924H249.697C248.369 259.924 247.705 260.312 247.705 261.09C247.705 261.43 247.818 261.695 248.045 261.887C248.271 262.078 248.562 262.174 248.918 262.174ZM257.021 261.318C257.021 261.025 256.91 260.799 256.688 260.639C256.469 260.475 256.084 260.334 255.533 260.217C254.986 260.1 254.551 259.959 254.227 259.795C253.906 259.631 253.668 259.436 253.512 259.209C253.359 258.982 253.283 258.713 253.283 258.4C253.283 257.881 253.502 257.441 253.939 257.082C254.381 256.723 254.943 256.543 255.627 256.543C256.346 256.543 256.928 256.729 257.373 257.1C257.822 257.471 258.047 257.945 258.047 258.523H256.957C256.957 258.227 256.83 257.971 256.576 257.756C256.326 257.541 256.01 257.434 255.627 257.434C255.232 257.434 254.924 257.52 254.701 257.691C254.479 257.863 254.367 258.088 254.367 258.365C254.367 258.627 254.471 258.824 254.678 258.957C254.885 259.09 255.258 259.217 255.797 259.338C256.34 259.459 256.779 259.604 257.115 259.771C257.451 259.939 257.699 260.143 257.859 260.381C258.023 260.615 258.105 260.902 258.105 261.242C258.105 261.809 257.879 262.264 257.426 262.607C256.973 262.947 256.385 263.117 255.662 263.117C255.154 263.117 254.705 263.027 254.314 262.848C253.924 262.668 253.617 262.418 253.395 262.098C253.176 261.773 253.066 261.424 253.066 261.049H254.15C254.17 261.412 254.314 261.701 254.584 261.916C254.857 262.127 255.217 262.232 255.662 262.232C256.072 262.232 256.4 262.15 256.646 261.986C256.896 261.818 257.021 261.596 257.021 261.318ZM261.592 261.412L263.068 256.66H264.229L261.68 263.979C261.285 265.033 260.658 265.561 259.799 265.561L259.594 265.543L259.189 265.467V264.588L259.482 264.611C259.85 264.611 260.135 264.537 260.338 264.389C260.545 264.24 260.715 263.969 260.848 263.574L261.088 262.93L258.826 256.66H260.01L261.592 261.412Z" fill="black"/>
<path d="M247.5 249.5L247.622 249.015L247.5 249.5ZM390.453 254.212C390.57 253.962 390.462 253.664 390.212 253.547L386.135 251.641C385.885 251.524 385.588 251.632 385.471 251.882C385.354 252.132 385.462 252.43 385.712 252.547L389.335 254.241L387.641 257.865C387.524 258.115 387.632 258.412 387.882 258.529C388.132 258.646 388.43 258.538 388.547 258.288L390.453 254.212ZM139 195C138.56 195.237 138.56 195.238 138.561 195.239C138.561 195.239 138.561 195.24 138.562 195.241C138.563 195.242 138.564 195.244 138.565 195.247C138.568 195.251 138.571 195.258 138.576 195.267C138.586 195.284 138.6 195.309 138.619 195.342C138.657 195.407 138.712 195.501 138.789 195.623C138.941 195.868 139.174 196.226 139.502 196.688C140.157 197.611 141.191 198.947 142.717 200.618C145.767 203.961 150.781 208.642 158.655 214.037C174.401 224.828 201.584 238.474 247.378 249.985L247.622 249.015C201.916 237.526 174.849 223.922 159.22 213.213C151.406 207.858 146.451 203.227 143.455 199.944C141.957 198.303 140.948 196.998 140.317 196.109C140.001 195.664 139.779 195.323 139.638 195.095C139.567 194.982 139.517 194.896 139.484 194.84C139.468 194.812 139.456 194.792 139.449 194.779C139.445 194.772 139.443 194.768 139.441 194.765C139.441 194.764 139.44 194.763 139.44 194.762C139.44 194.762 139.44 194.762 139.44 194.762C139.44 194.762 139.44 194.763 139 195ZM247.378 249.985C293.181 261.498 328.86 262.627 353.099 260.874C365.218 259.997 374.476 258.399 380.71 257.019C383.826 256.329 386.187 255.694 387.77 255.23C388.562 254.998 389.16 254.809 389.561 254.677C389.761 254.611 389.912 254.56 390.014 254.525C390.065 254.507 390.104 254.494 390.13 254.485C390.143 254.48 390.153 254.476 390.159 254.474C390.163 254.473 390.165 254.472 390.167 254.471C390.168 254.471 390.169 254.471 390.169 254.47C390.17 254.47 390.171 254.47 390 254C389.83 253.53 389.83 253.53 389.829 253.53C389.829 253.53 389.829 253.53 389.828 253.53C389.827 253.531 389.825 253.532 389.822 253.533C389.816 253.535 389.808 253.538 389.796 253.542C389.772 253.55 389.736 253.563 389.688 253.58C389.591 253.613 389.444 253.663 389.249 253.727C388.858 253.855 388.271 254.041 387.489 254.27C385.926 254.728 383.588 255.358 380.493 256.043C374.305 257.413 365.095 259.003 353.026 259.876C328.89 261.623 293.319 260.502 247.622 249.015L247.378 249.985Z" fill="black"/>
<rect width="71" height="16" fill="black" fill-opacity="0" transform="translate(175 172)"/>
<path d="M174.646 171.646C174.451 171.842 174.451 172.158 174.646 172.354L177.828 175.536C178.024 175.731 178.34 175.731 178.536 175.536C178.731 175.34 178.731 175.024 178.536 174.828L175.707 172L178.536 169.172C178.731 168.976 178.731 168.66 178.536 168.464C178.34 168.269 178.024 168.269 177.828 168.464L174.646 171.646ZM246 171.5H175V172.5H246V171.5Z" fill="black"/>
<path d="M201.068 186C201.006 185.875 200.955 185.652 200.916 185.332C200.412 185.855 199.811 186.117 199.111 186.117C198.486 186.117 197.973 185.941 197.57 185.59C197.172 185.234 196.973 184.785 196.973 184.242C196.973 183.582 197.223 183.07 197.723 182.707C198.227 182.34 198.934 182.156 199.844 182.156H200.898V181.658C200.898 181.279 200.785 180.979 200.559 180.756C200.332 180.529 199.998 180.416 199.557 180.416C199.17 180.416 198.846 180.514 198.584 180.709C198.322 180.904 198.191 181.141 198.191 181.418H197.102C197.102 181.102 197.213 180.797 197.436 180.504C197.662 180.207 197.967 179.973 198.35 179.801C198.736 179.629 199.16 179.543 199.621 179.543C200.352 179.543 200.924 179.727 201.338 180.094C201.752 180.457 201.967 180.959 201.982 181.6V184.518C201.982 185.1 202.057 185.562 202.205 185.906V186H201.068ZM199.27 185.174C199.609 185.174 199.932 185.086 200.236 184.91C200.541 184.734 200.762 184.506 200.898 184.225V182.924H200.049C198.721 182.924 198.057 183.312 198.057 184.09C198.057 184.43 198.17 184.695 198.396 184.887C198.623 185.078 198.914 185.174 199.27 185.174ZM203.424 182.777C203.424 181.789 203.652 181.004 204.109 180.422C204.566 179.836 205.172 179.543 205.926 179.543C206.699 179.543 207.303 179.816 207.736 180.363L207.789 179.66H208.779V185.848C208.779 186.668 208.535 187.314 208.047 187.787C207.562 188.26 206.91 188.496 206.09 188.496C205.633 188.496 205.186 188.398 204.748 188.203C204.311 188.008 203.977 187.74 203.746 187.4L204.309 186.75C204.773 187.324 205.342 187.611 206.014 187.611C206.541 187.611 206.951 187.463 207.244 187.166C207.541 186.869 207.689 186.451 207.689 185.912V185.367C207.256 185.867 206.664 186.117 205.914 186.117C205.172 186.117 204.57 185.818 204.109 185.221C203.652 184.623 203.424 183.809 203.424 182.777ZM204.514 182.9C204.514 183.615 204.66 184.178 204.953 184.588C205.246 184.994 205.656 185.197 206.184 185.197C206.867 185.197 207.369 184.887 207.689 184.266V181.371C207.357 180.766 206.859 180.463 206.195 180.463C205.668 180.463 205.256 180.668 204.959 181.078C204.662 181.488 204.514 182.096 204.514 182.9ZM214.334 186C214.271 185.875 214.221 185.652 214.182 185.332C213.678 185.855 213.076 186.117 212.377 186.117C211.752 186.117 211.238 185.941 210.836 185.59C210.438 185.234 210.238 184.785 210.238 184.242C210.238 183.582 210.488 183.07 210.988 182.707C211.492 182.34 212.199 182.156 213.109 182.156H214.164V181.658C214.164 181.279 214.051 180.979 213.824 180.756C213.598 180.529 213.264 180.416 212.822 180.416C212.436 180.416 212.111 180.514 211.85 180.709C211.588 180.904 211.457 181.141 211.457 181.418H210.367C210.367 181.102 210.479 180.797 210.701 180.504C210.928 180.207 211.232 179.973 211.615 179.801C212.002 179.629 212.426 179.543 212.887 179.543C213.617 179.543 214.189 179.727 214.604 180.094C215.018 180.457 215.232 180.959 215.248 181.6V184.518C215.248 185.1 215.322 185.562 215.471 185.906V186H214.334ZM212.535 185.174C212.875 185.174 213.197 185.086 213.502 184.91C213.807 184.734 214.027 184.506 214.164 184.225V182.924H213.314C211.986 182.924 211.322 183.312 211.322 184.09C211.322 184.43 211.436 184.695 211.662 184.887C211.889 185.078 212.18 185.174 212.535 185.174ZM218.125 186H217.041V179.66H218.125V186ZM216.953 177.979C216.953 177.803 217.006 177.654 217.111 177.533C217.221 177.412 217.381 177.352 217.592 177.352C217.803 177.352 217.963 177.412 218.072 177.533C218.182 177.654 218.236 177.803 218.236 177.979C218.236 178.154 218.182 178.301 218.072 178.418C217.963 178.535 217.803 178.594 217.592 178.594C217.381 178.594 217.221 178.535 217.111 178.418C217.006 178.301 216.953 178.154 216.953 177.979ZM220.891 179.66L220.926 180.457C221.41 179.848 222.043 179.543 222.824 179.543C224.164 179.543 224.84 180.299 224.852 181.811V186H223.768V181.805C223.764 181.348 223.658 181.01 223.451 180.791C223.248 180.572 222.93 180.463 222.496 180.463C222.145 180.463 221.836 180.557 221.57 180.744C221.305 180.932 221.098 181.178 220.949 181.482V186H219.865V179.66H220.891Z" fill="black"/>
<rect width="104.659" height="49.9316" fill="black" fill-opacity="0" transform="translate(0 137.396)"/>
<path d="M36.5 162L37 162L36.5 162ZM104.203 146.457C104.455 146.345 104.569 146.05 104.457 145.797L102.632 141.684C102.519 141.432 102.224 141.318 101.972 141.43C101.719 141.542 101.605 141.837 101.718 142.09L103.34 145.746L99.6842 147.369C99.4318 147.481 99.318 147.776 99.43 148.028C99.5421 148.281 99.8375 148.395 100.09 148.283L104.203 146.457ZM104 180C103.833 179.529 103.832 179.529 103.832 179.529C103.832 179.529 103.831 179.529 103.83 179.53C103.828 179.53 103.825 179.532 103.821 179.533C103.813 179.536 103.802 179.54 103.786 179.545C103.754 179.557 103.706 179.573 103.643 179.595C103.517 179.639 103.329 179.703 103.083 179.785C102.592 179.95 101.87 180.186 100.951 180.472C99.1127 181.044 96.4848 181.815 93.3311 182.609C87.02 184.198 78.6187 185.878 70.2279 186.251C61.8242 186.624 53.5019 185.683 47.2971 182.098C41.1376 178.54 37 172.338 37 162L36 162C36 172.662 40.3 179.21 46.7968 182.964C53.2482 186.692 61.801 187.626 70.2723 187.25C78.7565 186.872 87.2301 185.177 93.5753 183.579C96.7497 182.779 99.3953 182.003 101.248 181.427C102.175 181.138 102.903 180.9 103.401 180.733C103.65 180.65 103.841 180.585 103.97 180.54C104.034 180.518 104.083 180.501 104.117 180.489C104.133 180.483 104.146 180.479 104.154 180.476C104.159 180.474 104.162 180.473 104.164 180.472C104.165 180.472 104.166 180.472 104.167 180.471C104.167 180.471 104.168 180.471 104 180ZM37 162C37 156.817 38.0409 152.717 39.8371 149.498C41.632 146.28 44.1962 143.914 47.2873 142.22C53.4881 138.821 61.808 138.126 70.2131 138.749C78.6043 139.37 87.0062 141.298 93.3177 143.075C96.4717 143.963 99.0997 144.812 100.938 145.438C101.858 145.751 102.579 146.009 103.071 146.188C103.316 146.278 103.505 146.347 103.631 146.395C103.694 146.419 103.742 146.437 103.773 146.449C103.789 146.455 103.801 146.459 103.809 146.462C103.813 146.464 103.816 146.465 103.818 146.466C103.819 146.466 103.819 146.466 103.82 146.466C103.82 146.467 103.82 146.467 104 146C104.18 145.533 104.179 145.533 104.179 145.533C104.178 145.533 104.177 145.532 104.176 145.532C104.174 145.531 104.171 145.53 104.167 145.528C104.158 145.525 104.145 145.52 104.129 145.514C104.096 145.501 104.047 145.483 103.982 145.459C103.853 145.41 103.662 145.339 103.413 145.248C102.916 145.067 102.187 144.807 101.261 144.492C99.4083 143.86 96.7628 143.006 93.5887 142.112C87.244 140.327 78.7709 138.38 70.287 137.751C61.8172 137.124 53.2621 137.804 46.8066 141.343C43.5695 143.117 40.8603 145.611 38.9638 149.01C37.0686 152.408 36 156.683 36 162L37 162Z" fill="black"/>
<path d="M5.06836 166C5.00586 165.875 4.95508 165.652 4.91602 165.332C4.41211 165.855 3.81055 166.117 3.11133 166.117C2.48633 166.117 1.97266 165.941 1.57031 165.59C1.17188 165.234 0.972656 164.785 0.972656 164.242C0.972656 163.582 1.22266 163.07 1.72266 162.707C2.22656 162.34 2.93359 162.156 3.84375 162.156H4.89844V161.658C4.89844 161.279 4.78516 160.979 4.55859 160.756C4.33203 160.529 3.99805 160.416 3.55664 160.416C3.16992 160.416 2.8457 160.514 2.58398 160.709C2.32227 160.904 2.19141 161.141 2.19141 161.418H1.10156C1.10156 161.102 1.21289 160.797 1.43555 160.504C1.66211 160.207 1.9668 159.973 2.34961 159.801C2.73633 159.629 3.16016 159.543 3.62109 159.543C4.35156 159.543 4.92383 159.727 5.33789 160.094C5.75195 160.457 5.9668 160.959 5.98242 161.6V164.518C5.98242 165.1 6.05664 165.563 6.20508 165.906V166H5.06836ZM3.26953 165.174C3.60938 165.174 3.93164 165.086 4.23633 164.91C4.54102 164.734 4.76172 164.506 4.89844 164.225V162.924H4.04883C2.7207 162.924 2.05664 163.313 2.05664 164.09C2.05664 164.43 2.16992 164.695 2.39648 164.887C2.62305 165.078 2.91406 165.174 3.26953 165.174ZM7.42383 162.777C7.42383 161.789 7.65234 161.004 8.10938 160.422C8.56641 159.836 9.17188 159.543 9.92578 159.543C10.6992 159.543 11.3027 159.816 11.7363 160.363L11.7891 159.66H12.7793V165.848C12.7793 166.668 12.5352 167.314 12.0469 167.787C11.5625 168.26 10.9102 168.496 10.0898 168.496C9.63281 168.496 9.18555 168.398 8.74805 168.203C8.31055 168.008 7.97656 167.74 7.74609 167.4L8.30859 166.75C8.77344 167.324 9.3418 167.611 10.0137 167.611C10.541 167.611 10.9512 167.463 11.2441 167.166C11.541 166.869 11.6895 166.451 11.6895 165.912V165.367C11.2559 165.867 10.6641 166.117 9.91406 166.117C9.17188 166.117 8.57031 165.818 8.10938 165.221C7.65234 164.623 7.42383 163.809 7.42383 162.777ZM8.51367 162.9C8.51367 163.615 8.66016 164.178 8.95312 164.588C9.24609 164.994 9.65625 165.197 10.1836 165.197C10.8672 165.197 11.3691 164.887 11.6895 164.266V161.371C11.3574 160.766 10.8594 160.463 10.1953 160.463C9.66797 160.463 9.25586 160.668 8.95898 161.078C8.66211 161.488 8.51367 162.096 8.51367 162.9ZM18.334 166C18.2715 165.875 18.2207 165.652 18.1816 165.332C17.6777 165.855 17.0762 166.117 16.377 166.117C15.752 166.117 15.2383 165.941 14.8359 165.59C14.4375 165.234 14.2383 164.785 14.2383 164.242C14.2383 163.582 14.4883 163.07 14.9883 162.707C15.4922 162.34 16.1992 162.156 17.1094 162.156H18.1641V161.658C18.1641 161.279 18.0508 160.979 17.8242 160.756C17.5977 160.529 17.2637 160.416 16.8223 160.416C16.4355 160.416 16.1113 160.514 15.8496 160.709C15.5879 160.904 15.457 161.141 15.457 161.418H14.3672C14.3672 161.102 14.4785 160.797 14.7012 160.504C14.9277 160.207 15.2324 159.973 15.6152 159.801C16.002 159.629 16.4258 159.543 16.8867 159.543C17.6172 159.543 18.1895 159.727 18.6035 160.094C19.0176 160.457 19.2324 160.959 19.248 161.6V164.518C19.248 165.1 19.3223 165.563 19.4707 165.906V166H18.334ZM16.5352 165.174C16.875 165.174 17.1973 165.086 17.502 164.91C17.8066 164.734 18.0273 164.506 18.1641 164.225V162.924H17.3145C15.9863 162.924 15.3223 163.313 15.3223 164.09C15.3223 164.43 15.4355 164.695 15.6621 164.887C15.8887 165.078 16.1797 165.174 16.5352 165.174ZM22.125 166H21.041V159.66H22.125V166ZM20.9531 157.979C20.9531 157.803 21.0059 157.654 21.1113 157.533C21.2207 157.412 21.3809 157.352 21.5918 157.352C21.8027 157.352 21.9629 157.412 22.0723 157.533C22.1816 157.654 22.2363 157.803 22.2363 157.979C22.2363 158.154 22.1816 158.301 22.0723 158.418C21.9629 158.535 21.8027 158.594 21.5918 158.594C21.3809 158.594 21.2207 158.535 21.1113 158.418C21.0059 158.301 20.9531 158.154 20.9531 157.979ZM24.8906 159.66L24.9258 160.457C25.4102 159.848 26.043 159.543 26.8242 159.543C28.1641 159.543 28.8398 160.299 28.8516 161.811V166H27.7676V161.805C27.7637 161.348 27.6582 161.01 27.4512 160.791C27.248 160.572 26.9297 160.463 26.4961 160.463C26.1445 160.463 25.8359 160.557 25.5703 160.744C25.3047 160.932 25.0977 161.178 24.9492 161.482V166H23.8652V159.66H24.8906Z" fill="black"/>
<rect width="69.0815" height="97.0758" fill="black" fill-opacity="0" transform="translate(462.918 107)"/>
<path d="M500.5 150L500 150L500.5 150ZM464.137 107.344C463.947 107.143 463.956 106.827 464.156 106.637L467.426 103.544C467.626 103.355 467.943 103.363 468.132 103.564C468.322 103.765 468.313 104.081 468.113 104.271L465.207 107.02L467.956 109.926C468.145 110.126 468.137 110.443 467.936 110.632C467.735 110.822 467.419 110.813 467.229 110.613L464.137 107.344ZM464.5 203.5C464.348 203.024 464.348 203.024 464.348 203.024C464.348 203.024 464.348 203.024 464.349 203.023C464.349 203.023 464.351 203.023 464.352 203.022C464.356 203.021 464.362 203.019 464.37 203.016C464.386 203.011 464.41 203.003 464.443 202.992C464.508 202.97 464.607 202.936 464.736 202.89C464.994 202.797 465.374 202.656 465.86 202.46C466.832 202.069 468.224 201.462 469.896 200.602C473.242 198.883 477.704 196.156 482.165 192.129C491.078 184.083 500 170.836 500 150L501 150C501 171.164 491.922 184.667 482.835 192.871C478.296 196.969 473.758 199.742 470.354 201.492C468.651 202.367 467.231 202.986 466.234 203.388C465.735 203.588 465.342 203.735 465.073 203.831C464.938 203.88 464.834 203.915 464.763 203.939C464.728 203.951 464.701 203.96 464.682 203.966C464.673 203.97 464.666 203.972 464.661 203.974C464.658 203.974 464.656 203.975 464.655 203.975C464.654 203.976 464.653 203.976 464.653 203.976C464.653 203.976 464.652 203.976 464.5 203.5ZM500 150C500 129.175 491.091 118.586 482.239 113.177C477.798 110.463 473.354 109.042 470.017 108.301C468.349 107.93 466.961 107.73 465.992 107.622C465.507 107.568 465.128 107.537 464.871 107.52C464.743 107.512 464.645 107.507 464.58 107.504C464.548 107.502 464.523 107.501 464.508 107.501C464.5 107.5 464.494 107.5 464.49 107.5C464.489 107.5 464.487 107.5 464.487 107.5C464.486 107.5 464.486 107.5 464.486 107.5C464.486 107.5 464.486 107.5 464.5 107C464.514 106.5 464.514 106.5 464.515 106.5C464.515 106.5 464.516 106.5 464.517 106.5C464.518 106.5 464.52 106.5 464.523 106.5C464.528 106.501 464.535 106.501 464.545 106.501C464.563 106.502 464.591 106.503 464.627 106.505C464.698 106.508 464.802 106.514 464.938 106.523C465.208 106.541 465.602 106.573 466.102 106.628C467.102 106.739 468.526 106.945 470.233 107.324C473.646 108.083 478.202 109.537 482.761 112.323C491.909 117.914 501 128.825 501 150L500 150Z" fill="black"/>
<path d="M507.068 156C507.006 155.875 506.955 155.652 506.916 155.332C506.412 155.855 505.811 156.117 505.111 156.117C504.486 156.117 503.973 155.941 503.57 155.59C503.172 155.234 502.973 154.785 502.973 154.242C502.973 153.582 503.223 153.07 503.723 152.707C504.227 152.34 504.934 152.156 505.844 152.156H506.898V151.658C506.898 151.279 506.785 150.979 506.559 150.756C506.332 150.529 505.998 150.416 505.557 150.416C505.17 150.416 504.846 150.514 504.584 150.709C504.322 150.904 504.191 151.141 504.191 151.418H503.102C503.102 151.102 503.213 150.797 503.436 150.504C503.662 150.207 503.967 149.973 504.35 149.801C504.736 149.629 505.16 149.543 505.621 149.543C506.352 149.543 506.924 149.727 507.338 150.094C507.752 150.457 507.967 150.959 507.982 151.6V154.518C507.982 155.1 508.057 155.562 508.205 155.906V156H507.068ZM505.27 155.174C505.609 155.174 505.932 155.086 506.236 154.91C506.541 154.734 506.762 154.506 506.898 154.225V152.924H506.049C504.721 152.924 504.057 153.312 504.057 154.09C504.057 154.43 504.17 154.695 504.396 154.887C504.623 155.078 504.914 155.174 505.27 155.174ZM509.424 152.777C509.424 151.789 509.652 151.004 510.109 150.422C510.566 149.836 511.172 149.543 511.926 149.543C512.699 149.543 513.303 149.816 513.736 150.363L513.789 149.66H514.779V155.848C514.779 156.668 514.535 157.314 514.047 157.787C513.562 158.26 512.91 158.496 512.09 158.496C511.633 158.496 511.186 158.398 510.748 158.203C510.311 158.008 509.977 157.74 509.746 157.4L510.309 156.75C510.773 157.324 511.342 157.611 512.014 157.611C512.541 157.611 512.951 157.463 513.244 157.166C513.541 156.869 513.689 156.451 513.689 155.912V155.367C513.256 155.867 512.664 156.117 511.914 156.117C511.172 156.117 510.57 155.818 510.109 155.221C509.652 154.623 509.424 153.809 509.424 152.777ZM510.514 152.9C510.514 153.615 510.66 154.178 510.953 154.588C511.246 154.994 511.656 155.197 512.184 155.197C512.867 155.197 513.369 154.887 513.689 154.266V151.371C513.357 150.766 512.859 150.463 512.195 150.463C511.668 150.463 511.256 150.668 510.959 151.078C510.662 151.488 510.514 152.096 510.514 152.9ZM520.334 156C520.271 155.875 520.221 155.652 520.182 155.332C519.678 155.855 519.076 156.117 518.377 156.117C517.752 156.117 517.238 155.941 516.836 155.59C516.438 155.234 516.238 154.785 516.238 154.242C516.238 153.582 516.488 153.07 516.988 152.707C517.492 152.34 518.199 152.156 519.109 152.156H520.164V151.658C520.164 151.279 520.051 150.979 519.824 150.756C519.598 150.529 519.264 150.416 518.822 150.416C518.436 150.416 518.111 150.514 517.85 150.709C517.588 150.904 517.457 151.141 517.457 151.418H516.367C516.367 151.102 516.479 150.797 516.701 150.504C516.928 150.207 517.232 149.973 517.615 149.801C518.002 149.629 518.426 149.543 518.887 149.543C519.617 149.543 520.189 149.727 520.604 150.094C521.018 150.457 521.232 150.959 521.248 151.6V154.518C521.248 155.1 521.322 155.562 521.471 155.906V156H520.334ZM518.535 155.174C518.875 155.174 519.197 155.086 519.502 154.91C519.807 154.734 520.027 154.506 520.164 154.225V152.924H519.314C517.986 152.924 517.322 153.312 517.322 154.09C517.322 154.43 517.436 154.695 517.662 154.887C517.889 155.078 518.18 155.174 518.535 155.174ZM524.125 156H523.041V149.66H524.125V156ZM522.953 147.979C522.953 147.803 523.006 147.654 523.111 147.533C523.221 147.412 523.381 147.352 523.592 147.352C523.803 147.352 523.963 147.412 524.072 147.533C524.182 147.654 524.236 147.803 524.236 147.979C524.236 148.154 524.182 148.301 524.072 148.418C523.963 148.535 523.803 148.594 523.592 148.594C523.381 148.594 523.221 148.535 523.111 148.418C523.006 148.301 522.953 148.154 522.953 147.979ZM526.891 149.66L526.926 150.457C527.41 149.848 528.043 149.543 528.824 149.543C530.164 149.543 530.84 150.299 530.852 151.811V156H529.768V151.805C529.764 151.348 529.658 151.01 529.451 150.791C529.248 150.572 528.93 150.463 528.496 150.463C528.145 150.463 527.836 150.557 527.57 150.744C527.305 150.932 527.098 151.178 526.949 151.482V156H525.865V149.66H526.891Z" fill="black"/>
<rect width="110" height="54" fill="black" fill-opacity="0" transform="translate(282 193)"/>
<path d="M392.162 247.473C392.423 247.384 392.562 247.1 392.473 246.838L391.019 242.58C390.93 242.319 390.646 242.179 390.384 242.268C390.123 242.357 389.983 242.642 390.073 242.903L391.365 246.688L387.58 247.981C387.319 248.07 387.179 248.354 387.268 248.616C387.357 248.877 387.642 249.017 387.903 248.927L392.162 247.473ZM281.78 193.449L391.78 247.449L392.22 246.551L282.22 192.551L281.78 193.449Z" fill="black"/>
<path d="M304.865 215.667C305.294 214.776 305.841 214.169 306.506 213.843C307.172 213.514 307.845 213.513 308.524 213.841C309.221 214.177 309.645 214.685 309.798 215.366L310.151 214.756L311.043 215.186L308.354 220.759C307.998 221.498 307.497 221.974 306.852 222.188C306.21 222.403 305.52 222.332 304.781 221.976C304.369 221.777 304.009 221.495 303.7 221.129C303.391 220.763 303.206 220.377 303.146 219.97L303.936 219.629C304.105 220.348 304.492 220.854 305.097 221.146C305.572 221.375 306.006 221.419 306.399 221.279C306.795 221.141 307.11 220.829 307.345 220.343L307.581 219.853C306.974 220.115 306.332 220.083 305.656 219.757C304.988 219.434 304.576 218.904 304.421 218.165C304.269 217.428 304.417 216.595 304.865 215.667ZM305.793 216.251C305.482 216.895 305.37 217.465 305.456 217.962C305.543 218.455 305.824 218.816 306.299 219.045C306.915 219.342 307.502 219.281 308.06 218.861L309.318 216.254C309.282 215.564 308.965 215.075 308.367 214.786C307.892 214.557 307.432 214.563 306.986 214.803C306.54 215.044 306.143 215.526 305.793 216.251ZM310.91 218.577C311.18 218.017 311.532 217.567 311.965 217.225C312.403 216.885 312.875 216.688 313.383 216.634C313.894 216.581 314.401 216.676 314.904 216.919C315.682 217.294 316.18 217.866 316.398 218.636C316.621 219.406 316.516 220.239 316.085 221.132L316.052 221.201C315.784 221.757 315.435 222.204 315.007 222.544C314.584 222.882 314.114 223.078 313.598 223.133C313.085 223.189 312.571 223.093 312.058 222.845C311.284 222.472 310.786 221.9 310.563 221.129C310.345 220.36 310.449 219.532 310.877 218.645L310.91 218.577ZM311.836 219.166C311.53 219.8 311.431 220.378 311.538 220.903C311.648 221.429 311.95 221.811 312.442 222.048C312.938 222.288 313.426 222.284 313.904 222.038C314.385 221.789 314.794 221.314 315.132 220.614C315.434 219.987 315.529 219.409 315.417 218.877C315.309 218.344 315.01 217.959 314.517 217.721C314.035 217.489 313.554 217.493 313.073 217.734C312.593 217.975 312.18 218.452 311.836 219.166ZM317.074 221.551C317.344 220.991 317.695 220.541 318.129 220.199C318.566 219.859 319.039 219.662 319.546 219.608C320.058 219.555 320.565 219.65 321.068 219.893C321.845 220.268 322.343 220.84 322.562 221.61C322.785 222.38 322.68 223.213 322.249 224.106L322.216 224.175C321.948 224.731 321.599 225.178 321.171 225.518C320.747 225.856 320.278 226.052 319.761 226.107C319.248 226.163 318.735 226.067 318.222 225.819C317.448 225.446 316.949 224.874 316.727 224.103C316.508 223.334 316.613 222.506 317.041 221.619L317.074 221.551ZM317.999 222.14C317.694 222.774 317.594 223.352 317.701 223.877C317.812 224.403 318.113 224.785 318.606 225.022C319.102 225.262 319.589 225.258 320.068 225.012C320.549 224.763 320.958 224.288 321.296 223.588C321.598 222.961 321.693 222.383 321.58 221.851C321.473 221.318 321.173 220.933 320.681 220.695C320.199 220.463 319.718 220.467 319.237 220.708C318.756 220.949 318.344 221.426 317.999 222.14ZM323.256 224.54C323.679 223.664 324.226 223.061 324.897 222.73C325.57 222.395 326.243 222.39 326.915 222.714C327.583 223.037 328.003 223.521 328.172 224.167L329.609 221.19L330.585 221.662L326.674 229.767L325.777 229.334L326.025 228.699C325.403 228.989 324.744 228.966 324.048 228.63C323.386 228.311 322.977 227.78 322.82 227.036C322.666 226.294 322.799 225.487 323.22 224.614L323.256 224.54ZM324.179 225.122C323.867 225.769 323.756 226.34 323.847 226.835C323.938 227.33 324.219 227.691 324.69 227.919C325.309 228.218 325.895 228.158 326.449 227.739L327.714 225.117C327.682 224.438 327.363 223.952 326.758 223.66C326.28 223.429 325.817 223.434 325.372 223.674C324.926 223.915 324.529 224.397 324.179 225.122ZM330.751 232.548L329.912 232.143L337.146 225.348L337.98 225.75L330.751 232.548ZM340.328 236.485C339.554 236.112 339.046 235.555 338.805 234.814C338.566 234.07 338.652 233.272 339.062 232.42L339.149 232.241C339.422 231.674 339.773 231.221 340.202 230.882C340.635 230.54 341.106 230.338 341.613 230.275C342.126 230.21 342.609 230.287 343.063 230.506C343.806 230.864 344.265 231.387 344.44 232.075C344.616 232.762 344.484 233.562 344.044 234.473L343.848 234.879L339.98 233.013C339.723 233.582 339.666 234.117 339.811 234.616C339.962 235.114 340.28 235.48 340.765 235.714C341.11 235.88 341.436 235.951 341.743 235.926C342.05 235.9 342.349 235.815 342.641 235.669L343.013 236.421C342.18 236.926 341.285 236.947 340.328 236.485ZM342.676 231.308C342.282 231.118 341.882 231.103 341.475 231.262C341.07 231.418 340.712 231.739 340.399 232.226L343.259 233.606L343.295 233.532C343.506 233.022 343.557 232.574 343.449 232.188C343.342 231.798 343.084 231.505 342.676 231.308ZM347.265 239.703C347.263 239.563 347.315 239.34 347.419 239.035C346.737 239.287 346.082 239.262 345.452 238.958C344.889 238.686 344.503 238.305 344.293 237.813C344.089 237.32 344.105 236.829 344.341 236.34C344.627 235.745 345.075 235.393 345.683 235.283C346.297 235.171 347.013 235.313 347.833 235.709L348.783 236.167L348.999 235.718C349.164 235.377 349.193 235.057 349.085 234.758C348.98 234.456 348.728 234.208 348.33 234.017C347.982 233.849 347.648 233.796 347.327 233.858C347.007 233.92 346.786 234.076 346.666 234.326L345.684 233.852C345.821 233.567 346.054 233.341 346.382 233.174C346.715 233.005 347.091 232.926 347.511 232.938C347.934 232.951 348.353 233.058 348.768 233.258C349.426 233.576 349.861 233.99 350.075 234.5C350.29 235.008 350.265 235.553 350.001 236.137L348.733 238.765C348.48 239.289 348.346 239.738 348.33 240.112L348.289 240.197L347.265 239.703ZM346.004 238.177C346.31 238.325 346.639 238.385 346.99 238.36C347.34 238.334 347.639 238.224 347.884 238.03L348.449 236.858L347.684 236.489C346.488 235.912 345.721 235.973 345.383 236.674C345.235 236.98 345.222 237.268 345.343 237.539C345.464 237.81 345.684 238.022 346.004 238.177ZM353.675 240.928C353.802 240.664 353.8 240.412 353.669 240.171C353.543 239.928 353.258 239.634 352.813 239.289C352.371 238.946 352.04 238.63 351.819 238.341C351.602 238.054 351.472 237.775 351.43 237.503C351.391 237.233 351.44 236.957 351.576 236.675C351.801 236.207 352.189 235.907 352.74 235.773C353.293 235.641 353.878 235.724 354.494 236.021C355.141 236.333 355.585 236.753 355.824 237.281C356.068 237.811 356.064 238.336 355.813 238.856L354.831 238.383C354.96 238.115 354.957 237.83 354.822 237.526C354.69 237.224 354.451 236.989 354.107 236.823C353.751 236.652 353.436 236.595 353.161 236.653C352.886 236.711 352.688 236.865 352.567 237.115C352.454 237.35 352.461 237.573 352.59 237.783C352.719 237.992 352.999 238.269 353.432 238.612C353.869 238.957 354.202 239.278 354.431 239.575C354.661 239.873 354.796 240.163 354.837 240.448C354.882 240.73 354.832 241.024 354.684 241.33C354.438 241.84 354.036 242.152 353.478 242.265C352.923 242.374 352.319 242.271 351.669 241.957C351.211 241.737 350.846 241.46 350.572 241.129C350.298 240.797 350.131 240.439 350.069 240.054C350.013 239.667 350.067 239.304 350.23 238.966L351.206 239.437C351.066 239.773 351.07 240.096 351.219 240.407C351.374 240.716 351.652 240.967 352.053 241.16C352.422 241.339 352.754 241.407 353.046 241.367C353.345 241.324 353.554 241.178 353.675 240.928ZM357.75 242.998L361.145 239.36L362.19 239.864L356.714 245.348C355.9 246.126 355.106 246.329 354.332 245.956L354.155 245.851L353.824 245.606L354.206 244.815L354.46 244.963C354.791 245.123 355.08 245.18 355.327 245.134C355.578 245.091 355.849 244.92 356.14 244.622L356.637 244.146L357.324 237.517L358.39 238.031L357.75 242.998Z" fill="black"/>
<path d="M427.651 215.358C427.849 215.551 428.165 215.547 428.358 215.349L431.498 212.125C431.691 211.927 431.687 211.611 431.489 211.418C431.291 211.226 430.974 211.23 430.782 211.428L427.991 214.293L425.125 211.502C424.927 211.309 424.611 211.313 424.418 211.511C424.226 211.709 424.23 212.026 424.428 212.218L427.651 215.358ZM426.5 139.007L427.5 215.007L428.5 214.993L427.5 138.993L426.5 139.007Z" fill="black"/>
<path d="M368.609 173.777C368.609 172.789 368.838 172.004 369.295 171.422C369.752 170.836 370.357 170.543 371.111 170.543C371.885 170.543 372.488 170.816 372.922 171.363L372.975 170.66H373.965V176.848C373.965 177.668 373.721 178.314 373.232 178.787C372.748 179.26 372.096 179.496 371.275 179.496C370.818 179.496 370.371 179.398 369.934 179.203C369.496 179.008 369.162 178.74 368.932 178.4L369.494 177.75C369.959 178.324 370.527 178.611 371.199 178.611C371.727 178.611 372.137 178.463 372.43 178.166C372.727 177.869 372.875 177.451 372.875 176.912V176.367C372.441 176.867 371.85 177.117 371.1 177.117C370.357 177.117 369.756 176.818 369.295 176.221C368.838 175.623 368.609 174.809 368.609 173.777ZM369.699 173.9C369.699 174.615 369.846 175.178 370.139 175.588C370.432 175.994 370.842 176.197 371.369 176.197C372.053 176.197 372.555 175.887 372.875 175.266V172.371C372.543 171.766 372.045 171.463 371.381 171.463C370.854 171.463 370.441 171.668 370.145 172.078C369.848 172.488 369.699 173.096 369.699 173.9ZM375.318 173.771C375.318 173.15 375.439 172.592 375.682 172.096C375.928 171.6 376.268 171.217 376.701 170.947C377.139 170.678 377.637 170.543 378.195 170.543C379.059 170.543 379.756 170.842 380.287 171.439C380.822 172.037 381.09 172.832 381.09 173.824V173.9C381.09 174.518 380.971 175.072 380.732 175.564C380.498 176.053 380.16 176.434 379.719 176.707C379.281 176.98 378.777 177.117 378.207 177.117C377.348 177.117 376.65 176.818 376.115 176.221C375.584 175.623 375.318 174.832 375.318 173.848V173.771ZM376.408 173.9C376.408 174.604 376.57 175.168 376.895 175.594C377.223 176.02 377.66 176.232 378.207 176.232C378.758 176.232 379.195 176.018 379.52 175.588C379.844 175.154 380.006 174.549 380.006 173.771C380.006 173.076 379.84 172.514 379.508 172.084C379.18 171.65 378.742 171.434 378.195 171.434C377.66 171.434 377.229 171.646 376.9 172.072C376.572 172.498 376.408 173.107 376.408 173.9ZM382.162 173.771C382.162 173.15 382.283 172.592 382.525 172.096C382.771 171.6 383.111 171.217 383.545 170.947C383.982 170.678 384.48 170.543 385.039 170.543C385.902 170.543 386.6 170.842 387.131 171.439C387.666 172.037 387.934 172.832 387.934 173.824V173.9C387.934 174.518 387.814 175.072 387.576 175.564C387.342 176.053 387.004 176.434 386.562 176.707C386.125 176.98 385.621 177.117 385.051 177.117C384.191 177.117 383.494 176.818 382.959 176.221C382.428 175.623 382.162 174.832 382.162 173.848V173.771ZM383.252 173.9C383.252 174.604 383.414 175.168 383.738 175.594C384.066 176.02 384.504 176.232 385.051 176.232C385.602 176.232 386.039 176.018 386.363 175.588C386.688 175.154 386.85 174.549 386.85 173.771C386.85 173.076 386.684 172.514 386.352 172.084C386.023 171.65 385.586 171.434 385.039 171.434C384.504 171.434 384.072 171.646 383.744 172.072C383.416 172.498 383.252 173.107 383.252 173.9ZM389.029 173.777C389.029 172.805 389.26 172.023 389.721 171.434C390.182 170.84 390.785 170.543 391.531 170.543C392.273 170.543 392.861 170.797 393.295 171.305V168H394.379V177H393.383L393.33 176.32C392.896 176.852 392.293 177.117 391.52 177.117C390.785 177.117 390.186 176.816 389.721 176.215C389.26 175.613 389.029 174.828 389.029 173.859V173.777ZM390.113 173.9C390.113 174.619 390.262 175.182 390.559 175.588C390.855 175.994 391.266 176.197 391.789 176.197C392.477 176.197 392.979 175.889 393.295 175.271V172.359C392.971 171.762 392.473 171.463 391.801 171.463C391.27 171.463 390.855 171.668 390.559 172.078C390.262 172.488 390.113 173.096 390.113 173.9ZM396.283 177.732H395.352L398.914 168.469H399.84L396.283 177.732ZM403.643 177.117C402.783 177.117 402.084 176.836 401.545 176.273C401.006 175.707 400.736 174.951 400.736 174.006V173.807C400.736 173.178 400.855 172.617 401.094 172.125C401.336 171.629 401.672 171.242 402.102 170.965C402.535 170.684 403.004 170.543 403.508 170.543C404.332 170.543 404.973 170.814 405.43 171.357C405.887 171.9 406.115 172.678 406.115 173.689V174.141H401.82C401.836 174.766 402.018 175.271 402.365 175.658C402.717 176.041 403.162 176.232 403.701 176.232C404.084 176.232 404.408 176.154 404.674 175.998C404.939 175.842 405.172 175.635 405.371 175.377L406.033 175.893C405.502 176.709 404.705 177.117 403.643 177.117ZM403.508 171.434C403.07 171.434 402.703 171.594 402.406 171.914C402.109 172.23 401.926 172.676 401.855 173.25H405.031V173.168C405 172.617 404.852 172.191 404.586 171.891C404.32 171.586 403.961 171.434 403.508 171.434ZM411.289 177C411.227 176.875 411.176 176.652 411.137 176.332C410.633 176.855 410.031 177.117 409.332 177.117C408.707 177.117 408.193 176.941 407.791 176.59C407.393 176.234 407.193 175.785 407.193 175.242C407.193 174.582 407.443 174.07 407.943 173.707C408.447 173.34 409.154 173.156 410.064 173.156H411.119V172.658C411.119 172.279 411.006 171.979 410.779 171.756C410.553 171.529 410.219 171.416 409.777 171.416C409.391 171.416 409.066 171.514 408.805 171.709C408.543 171.904 408.412 172.141 408.412 172.418H407.322C407.322 172.102 407.434 171.797 407.656 171.504C407.883 171.207 408.188 170.973 408.57 170.801C408.957 170.629 409.381 170.543 409.842 170.543C410.572 170.543 411.145 170.727 411.559 171.094C411.973 171.457 412.188 171.959 412.203 172.6V175.518C412.203 176.1 412.277 176.562 412.426 176.906V177H411.289ZM409.49 176.174C409.83 176.174 410.152 176.086 410.457 175.91C410.762 175.734 410.982 175.506 411.119 175.225V173.924H410.27C408.941 173.924 408.277 174.312 408.277 175.09C408.277 175.43 408.391 175.695 408.617 175.887C408.844 176.078 409.135 176.174 409.49 176.174ZM417.594 175.318C417.594 175.025 417.482 174.799 417.26 174.639C417.041 174.475 416.656 174.334 416.105 174.217C415.559 174.1 415.123 173.959 414.799 173.795C414.479 173.631 414.24 173.436 414.084 173.209C413.932 172.982 413.855 172.713 413.855 172.4C413.855 171.881 414.074 171.441 414.512 171.082C414.953 170.723 415.516 170.543 416.199 170.543C416.918 170.543 417.5 170.729 417.945 171.1C418.395 171.471 418.619 171.945 418.619 172.523H417.529C417.529 172.227 417.402 171.971 417.148 171.756C416.898 171.541 416.582 171.434 416.199 171.434C415.805 171.434 415.496 171.52 415.273 171.691C415.051 171.863 414.939 172.088 414.939 172.365C414.939 172.627 415.043 172.824 415.25 172.957C415.457 173.09 415.83 173.217 416.369 173.338C416.912 173.459 417.352 173.604 417.688 173.771C418.023 173.939 418.271 174.143 418.432 174.381C418.596 174.615 418.678 174.902 418.678 175.242C418.678 175.809 418.451 176.264 417.998 176.607C417.545 176.947 416.957 177.117 416.234 177.117C415.727 177.117 415.277 177.027 414.887 176.848C414.496 176.668 414.189 176.418 413.967 176.098C413.748 175.773 413.639 175.424 413.639 175.049H414.723C414.742 175.412 414.887 175.701 415.156 175.916C415.43 176.127 415.789 176.232 416.234 176.232C416.645 176.232 416.973 176.15 417.219 175.986C417.469 175.818 417.594 175.596 417.594 175.318ZM422.164 175.412L423.641 170.66H424.801L422.252 177.979C421.857 179.033 421.23 179.561 420.371 179.561L420.166 179.543L419.762 179.467V178.588L420.055 178.611C420.422 178.611 420.707 178.537 420.91 178.389C421.117 178.24 421.287 177.969 421.42 177.574L421.66 176.93L419.398 170.66H420.582L422.164 175.412Z" fill="black"/>
<path d="M431.5 14L431.486 14.4998L431.5 14ZM410.871 67.483C411.138 67.5543 411.412 67.3959 411.483 67.1292L412.646 62.7819C412.717 62.5152 412.559 62.2411 412.292 62.1697C412.025 62.0984 411.751 62.2568 411.68 62.5236L410.646 66.3878L406.782 65.3543C406.515 65.283 406.241 65.4414 406.17 65.7082C406.098 65.9749 406.257 66.249 406.524 66.3204L410.871 67.483ZM452 67C452.427 67.2609 452.427 67.2605 452.427 67.26C452.427 67.2596 452.428 67.2588 452.428 67.2579C452.429 67.2561 452.431 67.2536 452.433 67.2503C452.437 67.2436 452.443 67.2338 452.451 67.221C452.466 67.1954 452.489 67.1576 452.518 67.1079C452.578 67.0086 452.664 66.862 452.774 66.6713C452.994 66.2898 453.31 65.7315 453.692 65.0212C454.457 63.6009 455.49 61.5714 456.567 59.1315C458.717 54.2579 461.052 47.7195 461.747 41.1148C462.442 34.5121 461.504 27.772 457.019 22.5869C452.532 17.4007 444.589 13.8773 431.514 13.5002L431.486 14.4998C444.411 14.8726 452.03 18.3493 456.262 23.2412C460.496 28.1343 461.433 34.5503 460.753 41.0101C460.073 47.468 457.783 53.8984 455.652 58.7278C454.588 61.1395 453.567 63.1452 452.812 64.5472C452.434 65.248 452.124 65.7976 451.908 66.1712C451.8 66.3581 451.716 66.5008 451.659 66.5965C451.631 66.6444 451.609 66.6804 451.595 66.7043C451.587 66.7163 451.582 66.7252 451.578 66.731C451.577 66.7339 451.575 66.736 451.575 66.7374C451.574 66.7381 451.574 66.7385 451.574 66.7388C451.573 66.7391 451.573 66.7391 452 67ZM431.514 13.5002C418.44 13.123 410.484 16.2621 405.986 21.316C401.493 26.3648 400.559 33.2054 401.253 39.9884C401.947 46.7775 404.28 53.5952 406.43 58.7018C407.506 61.2581 408.539 63.3925 409.303 64.8886C409.685 65.6367 410 66.2256 410.22 66.6281C410.33 66.8294 410.417 66.9841 410.476 67.0889C410.505 67.1413 410.528 67.1812 410.543 67.2083C410.551 67.2218 410.557 67.232 410.561 67.2391C410.563 67.2426 410.564 67.2452 410.565 67.2471C410.566 67.248 410.566 67.2488 410.567 67.2493C410.567 67.2498 410.567 67.2502 411 67C411.433 66.7498 411.433 66.7497 411.433 66.7494C411.432 66.7491 411.432 66.7486 411.432 66.7479C411.431 66.7464 411.43 66.7441 411.428 66.741C411.424 66.7349 411.419 66.7254 411.412 66.7127C411.397 66.6873 411.375 66.6491 411.347 66.5984C411.29 66.4971 411.206 66.346 411.098 66.1484C410.882 65.7534 410.571 65.1728 410.193 64.4337C409.438 62.9551 408.416 60.8434 407.351 58.3138C405.22 53.2485 402.928 46.5349 402.247 39.8866C401.566 33.2321 402.507 26.7289 406.733 21.9808C410.954 17.2379 418.56 14.1269 431.486 14.4998L431.514 13.5002Z" fill="black"/>
<path d="M422.068 9C422.006 8.875 421.955 8.65234 421.916 8.33203C421.412 8.85547 420.811 9.11719 420.111 9.11719C419.486 9.11719 418.973 8.94141 418.57 8.58984C418.172 8.23438 417.973 7.78516 417.973 7.24219C417.973 6.58203 418.223 6.07031 418.723 5.70703C419.227 5.33984 419.934 5.15625 420.844 5.15625H421.898V4.6582C421.898 4.2793 421.785 3.97852 421.559 3.75586C421.332 3.5293 420.998 3.41602 420.557 3.41602C420.17 3.41602 419.846 3.51367 419.584 3.70898C419.322 3.9043 419.191 4.14062 419.191 4.41797H418.102C418.102 4.10156 418.213 3.79688 418.436 3.50391C418.662 3.20703 418.967 2.97266 419.35 2.80078C419.736 2.62891 420.16 2.54297 420.621 2.54297C421.352 2.54297 421.924 2.72656 422.338 3.09375C422.752 3.45703 422.967 3.95898 422.982 4.59961V7.51758C422.982 8.09961 423.057 8.5625 423.205 8.90625V9H422.068ZM420.27 8.17383C420.609 8.17383 420.932 8.08594 421.236 7.91016C421.541 7.73438 421.762 7.50586 421.898 7.22461V5.92383H421.049C419.721 5.92383 419.057 6.3125 419.057 7.08984C419.057 7.42969 419.17 7.69531 419.396 7.88672C419.623 8.07812 419.914 8.17383 420.27 8.17383ZM424.424 5.77734C424.424 4.78906 424.652 4.00391 425.109 3.42188C425.566 2.83594 426.172 2.54297 426.926 2.54297C427.699 2.54297 428.303 2.81641 428.736 3.36328L428.789 2.66016H429.779V8.84766C429.779 9.66797 429.535 10.3145 429.047 10.7871C428.562 11.2598 427.91 11.4961 427.09 11.4961C426.633 11.4961 426.186 11.3984 425.748 11.2031C425.311 11.0078 424.977 10.7402 424.746 10.4004L425.309 9.75C425.773 10.3242 426.342 10.6113 427.014 10.6113C427.541 10.6113 427.951 10.4629 428.244 10.166C428.541 9.86914 428.689 9.45117 428.689 8.91211V8.36719C428.256 8.86719 427.664 9.11719 426.914 9.11719C426.172 9.11719 425.57 8.81836 425.109 8.2207C424.652 7.62305 424.424 6.80859 424.424 5.77734ZM425.514 5.90039C425.514 6.61523 425.66 7.17773 425.953 7.58789C426.246 7.99414 426.656 8.19727 427.184 8.19727C427.867 8.19727 428.369 7.88672 428.689 7.26562V4.37109C428.357 3.76562 427.859 3.46289 427.195 3.46289C426.668 3.46289 426.256 3.66797 425.959 4.07812C425.662 4.48828 425.514 5.0957 425.514 5.90039ZM435.334 9C435.271 8.875 435.221 8.65234 435.182 8.33203C434.678 8.85547 434.076 9.11719 433.377 9.11719C432.752 9.11719 432.238 8.94141 431.836 8.58984C431.438 8.23438 431.238 7.78516 431.238 7.24219C431.238 6.58203 431.488 6.07031 431.988 5.70703C432.492 5.33984 433.199 5.15625 434.109 5.15625H435.164V4.6582C435.164 4.2793 435.051 3.97852 434.824 3.75586C434.598 3.5293 434.264 3.41602 433.822 3.41602C433.436 3.41602 433.111 3.51367 432.85 3.70898C432.588 3.9043 432.457 4.14062 432.457 4.41797H431.367C431.367 4.10156 431.479 3.79688 431.701 3.50391C431.928 3.20703 432.232 2.97266 432.615 2.80078C433.002 2.62891 433.426 2.54297 433.887 2.54297C434.617 2.54297 435.189 2.72656 435.604 3.09375C436.018 3.45703 436.232 3.95898 436.248 4.59961V7.51758C436.248 8.09961 436.322 8.5625 436.471 8.90625V9H435.334ZM433.535 8.17383C433.875 8.17383 434.197 8.08594 434.502 7.91016C434.807 7.73438 435.027 7.50586 435.164 7.22461V5.92383H434.314C432.986 5.92383 432.322 6.3125 432.322 7.08984C432.322 7.42969 432.436 7.69531 432.662 7.88672C432.889 8.07812 433.18 8.17383 433.535 8.17383ZM439.125 9H438.041V2.66016H439.125V9ZM437.953 0.978516C437.953 0.802734 438.006 0.654297 438.111 0.533203C438.221 0.412109 438.381 0.351562 438.592 0.351562C438.803 0.351562 438.963 0.412109 439.072 0.533203C439.182 0.654297 439.236 0.802734 439.236 0.978516C439.236 1.1543 439.182 1.30078 439.072 1.41797C438.963 1.53516 438.803 1.59375 438.592 1.59375C438.381 1.59375 438.221 1.53516 438.111 1.41797C438.006 1.30078 437.953 1.1543 437.953 0.978516ZM441.891 2.66016L441.926 3.45703C442.41 2.84766 443.043 2.54297 443.824 2.54297C445.164 2.54297 445.84 3.29883 445.852 4.81055V9H444.768V4.80469C444.764 4.34766 444.658 4.00977 444.451 3.79102C444.248 3.57227 443.93 3.46289 443.496 3.46289C443.145 3.46289 442.836 3.55664 442.57 3.74414C442.305 3.93164 442.098 4.17773 441.949 4.48242V9H440.865V2.66016H441.891Z" fill="black"/>
<path d="M425 338L425.005 337.5L425.005 337.5L425 338ZM439.113 283.513C438.844 283.451 438.575 283.618 438.513 283.887L437.497 288.271C437.435 288.54 437.603 288.809 437.872 288.871C438.141 288.933 438.409 288.766 438.472 288.497L439.374 284.6L443.271 285.503C443.54 285.565 443.809 285.397 443.871 285.128C443.933 284.859 443.766 284.591 443.497 284.528L439.113 283.513ZM410.5 284C410.076 283.735 410.076 283.735 410.076 283.736C410.075 283.736 410.075 283.737 410.074 283.738C410.073 283.739 410.072 283.742 410.069 283.745C410.065 283.752 410.059 283.762 410.051 283.776C410.034 283.802 410.01 283.841 409.979 283.893C409.916 283.995 409.824 284.147 409.706 284.345C409.47 284.74 409.132 285.319 408.718 286.055C407.892 287.527 406.765 289.629 405.564 292.152C403.165 297.194 400.456 303.944 399.258 310.725C398.061 317.495 398.353 324.394 402.077 329.641C405.815 334.909 412.91 338.374 424.995 338.5L425.005 337.5C413.09 337.376 406.373 333.966 402.892 329.062C399.397 324.138 399.064 317.567 400.242 310.9C401.419 304.244 404.085 297.587 406.467 292.582C407.657 290.082 408.772 288.001 409.59 286.545C409.999 285.817 410.333 285.246 410.565 284.857C410.681 284.663 410.771 284.514 410.832 284.414C410.862 284.365 410.886 284.327 410.901 284.302C410.909 284.289 410.915 284.28 410.918 284.274C410.92 284.271 410.922 284.269 410.923 284.267C410.923 284.267 410.923 284.266 410.924 284.266C410.924 284.265 410.924 284.265 410.5 284ZM424.995 338.5C437.079 338.626 444.15 335.289 447.846 330.062C451.525 324.858 451.751 317.926 450.492 311.097C449.23 304.254 446.46 297.412 444.014 292.292C442.789 289.73 441.643 287.593 440.803 286.096C440.383 285.348 440.039 284.759 439.8 284.356C439.68 284.155 439.587 284.001 439.523 283.896C439.491 283.844 439.467 283.804 439.45 283.777C439.442 283.764 439.435 283.753 439.431 283.746C439.429 283.743 439.427 283.74 439.426 283.738C439.426 283.737 439.425 283.737 439.425 283.736C439.424 283.736 439.424 283.735 439 284C438.576 284.265 438.576 284.265 438.576 284.265C438.576 284.265 438.577 284.266 438.577 284.267C438.578 284.268 438.579 284.27 438.581 284.274C438.585 284.28 438.591 284.289 438.599 284.302C438.615 284.327 438.638 284.366 438.669 284.417C438.731 284.518 438.823 284.67 438.94 284.868C439.176 285.263 439.515 285.845 439.931 286.586C440.763 288.067 441.898 290.184 443.111 292.723C445.54 297.807 448.27 304.559 449.508 311.278C450.749 318.012 450.475 324.61 447.029 329.485C443.6 334.336 436.921 337.624 425.005 337.5L424.995 338.5Z" fill="black"/>
<path d="M387.049 351.428C387.529 350.838 388.154 350.543 388.924 350.543C390.264 350.543 390.939 351.299 390.951 352.811V357H389.867V352.805C389.863 352.348 389.758 352.01 389.551 351.791C389.348 351.572 389.029 351.463 388.596 351.463C388.244 351.463 387.936 351.557 387.67 351.744C387.404 351.932 387.197 352.178 387.049 352.482V357H385.965V348H387.049V351.428ZM396.488 357C396.426 356.875 396.375 356.652 396.336 356.332C395.832 356.855 395.23 357.117 394.531 357.117C393.906 357.117 393.393 356.941 392.99 356.59C392.592 356.234 392.393 355.785 392.393 355.242C392.393 354.582 392.643 354.07 393.143 353.707C393.646 353.34 394.354 353.156 395.264 353.156H396.318V352.658C396.318 352.279 396.205 351.979 395.979 351.756C395.752 351.529 395.418 351.416 394.977 351.416C394.59 351.416 394.266 351.514 394.004 351.709C393.742 351.904 393.611 352.141 393.611 352.418H392.521C392.521 352.102 392.633 351.797 392.855 351.504C393.082 351.207 393.387 350.973 393.77 350.801C394.156 350.629 394.58 350.543 395.041 350.543C395.771 350.543 396.344 350.727 396.758 351.094C397.172 351.457 397.387 351.959 397.402 352.6V355.518C397.402 356.1 397.477 356.562 397.625 356.906V357H396.488ZM394.689 356.174C395.029 356.174 395.352 356.086 395.656 355.91C395.961 355.734 396.182 355.506 396.318 355.225V353.924H395.469C394.141 353.924 393.477 354.312 393.477 355.09C393.477 355.43 393.59 355.695 393.816 355.887C394.043 356.078 394.334 356.174 394.689 356.174ZM402.166 351.633C402.002 351.605 401.824 351.592 401.633 351.592C400.922 351.592 400.439 351.895 400.186 352.5V357H399.102V350.66H400.156L400.174 351.393C400.529 350.826 401.033 350.543 401.686 350.543C401.896 350.543 402.057 350.57 402.166 350.625V351.633ZM402.787 353.777C402.787 352.805 403.018 352.023 403.479 351.434C403.939 350.84 404.543 350.543 405.289 350.543C406.031 350.543 406.619 350.797 407.053 351.305V348H408.137V357H407.141L407.088 356.32C406.654 356.852 406.051 357.117 405.277 357.117C404.543 357.117 403.943 356.816 403.479 356.215C403.018 355.613 402.787 354.828 402.787 353.859V353.777ZM403.871 353.9C403.871 354.619 404.02 355.182 404.316 355.588C404.613 355.994 405.023 356.197 405.547 356.197C406.234 356.197 406.736 355.889 407.053 355.271V352.359C406.729 351.762 406.23 351.463 405.559 351.463C405.027 351.463 404.613 351.668 404.316 352.078C404.02 352.488 403.871 353.096 403.871 353.9ZM410.041 357.732H409.109L412.672 348.469H413.598L410.041 357.732ZM417.4 357.117C416.541 357.117 415.842 356.836 415.303 356.273C414.764 355.707 414.494 354.951 414.494 354.006V353.807C414.494 353.178 414.613 352.617 414.852 352.125C415.094 351.629 415.43 351.242 415.859 350.965C416.293 350.684 416.762 350.543 417.266 350.543C418.09 350.543 418.73 350.814 419.188 351.357C419.645 351.9 419.873 352.678 419.873 353.689V354.141H415.578C415.594 354.766 415.775 355.271 416.123 355.658C416.475 356.041 416.92 356.232 417.459 356.232C417.842 356.232 418.166 356.154 418.432 355.998C418.697 355.842 418.93 355.635 419.129 355.377L419.791 355.893C419.26 356.709 418.463 357.117 417.4 357.117ZM417.266 351.434C416.828 351.434 416.461 351.594 416.164 351.914C415.867 352.23 415.684 352.676 415.613 353.25H418.789V353.168C418.758 352.617 418.609 352.191 418.344 351.891C418.078 351.586 417.719 351.434 417.266 351.434ZM425.047 357C424.984 356.875 424.934 356.652 424.895 356.332C424.391 356.855 423.789 357.117 423.09 357.117C422.465 357.117 421.951 356.941 421.549 356.59C421.15 356.234 420.951 355.785 420.951 355.242C420.951 354.582 421.201 354.07 421.701 353.707C422.205 353.34 422.912 353.156 423.822 353.156H424.877V352.658C424.877 352.279 424.764 351.979 424.537 351.756C424.311 351.529 423.977 351.416 423.535 351.416C423.148 351.416 422.824 351.514 422.562 351.709C422.301 351.904 422.17 352.141 422.17 352.418H421.08C421.08 352.102 421.191 351.797 421.414 351.504C421.641 351.207 421.945 350.973 422.328 350.801C422.715 350.629 423.139 350.543 423.6 350.543C424.33 350.543 424.902 350.727 425.316 351.094C425.73 351.457 425.945 351.959 425.961 352.6V355.518C425.961 356.1 426.035 356.562 426.184 356.906V357H425.047ZM423.248 356.174C423.588 356.174 423.91 356.086 424.215 355.91C424.52 355.734 424.74 355.506 424.877 355.225V353.924H424.027C422.699 353.924 422.035 354.312 422.035 355.09C422.035 355.43 422.148 355.695 422.375 355.887C422.602 356.078 422.893 356.174 423.248 356.174ZM431.352 355.318C431.352 355.025 431.24 354.799 431.018 354.639C430.799 354.475 430.414 354.334 429.863 354.217C429.316 354.1 428.881 353.959 428.557 353.795C428.236 353.631 427.998 353.436 427.842 353.209C427.689 352.982 427.613 352.713 427.613 352.4C427.613 351.881 427.832 351.441 428.27 351.082C428.711 350.723 429.273 350.543 429.957 350.543C430.676 350.543 431.258 350.729 431.703 351.1C432.152 351.471 432.377 351.945 432.377 352.523H431.287C431.287 352.227 431.16 351.971 430.906 351.756C430.656 351.541 430.34 351.434 429.957 351.434C429.562 351.434 429.254 351.52 429.031 351.691C428.809 351.863 428.697 352.088 428.697 352.365C428.697 352.627 428.801 352.824 429.008 352.957C429.215 353.09 429.588 353.217 430.127 353.338C430.67 353.459 431.109 353.604 431.445 353.771C431.781 353.939 432.029 354.143 432.189 354.381C432.354 354.615 432.436 354.902 432.436 355.242C432.436 355.809 432.209 356.264 431.756 356.607C431.303 356.947 430.715 357.117 429.992 357.117C429.484 357.117 429.035 357.027 428.645 356.848C428.254 356.668 427.947 356.418 427.725 356.098C427.506 355.773 427.396 355.424 427.396 355.049H428.48C428.5 355.412 428.645 355.701 428.914 355.916C429.188 356.127 429.547 356.232 429.992 356.232C430.402 356.232 430.73 356.15 430.977 355.986C431.227 355.818 431.352 355.596 431.352 355.318ZM435.922 355.412L437.398 350.66H438.559L436.01 357.979C435.615 359.033 434.988 359.561 434.129 359.561L433.924 359.543L433.52 359.467V358.588L433.812 358.611C434.18 358.611 434.465 358.537 434.668 358.389C434.875 358.24 435.045 357.969 435.178 357.574L435.418 356.93L433.156 350.66H434.34L435.922 355.412ZM439.748 357.732H438.816L442.379 348.469H443.305L439.748 357.732ZM444.219 353.777C444.219 352.789 444.447 352.004 444.904 351.422C445.361 350.836 445.967 350.543 446.721 350.543C447.494 350.543 448.098 350.816 448.531 351.363L448.584 350.66H449.574V356.848C449.574 357.668 449.33 358.314 448.842 358.787C448.357 359.26 447.705 359.496 446.885 359.496C446.428 359.496 445.98 359.398 445.543 359.203C445.105 359.008 444.771 358.74 444.541 358.4L445.104 357.75C445.568 358.324 446.137 358.611 446.809 358.611C447.336 358.611 447.746 358.463 448.039 358.166C448.336 357.869 448.484 357.451 448.484 356.912V356.367C448.051 356.867 447.459 357.117 446.709 357.117C445.967 357.117 445.365 356.818 444.904 356.221C444.447 355.623 444.219 354.809 444.219 353.777ZM445.309 353.9C445.309 354.615 445.455 355.178 445.748 355.588C446.041 355.994 446.451 356.197 446.979 356.197C447.662 356.197 448.164 355.887 448.484 355.266V352.371C448.152 351.766 447.654 351.463 446.99 351.463C446.463 351.463 446.051 351.668 445.754 352.078C445.457 352.488 445.309 353.096 445.309 353.9ZM450.928 353.771C450.928 353.15 451.049 352.592 451.291 352.096C451.537 351.6 451.877 351.217 452.311 350.947C452.748 350.678 453.246 350.543 453.805 350.543C454.668 350.543 455.365 350.842 455.896 351.439C456.432 352.037 456.699 352.832 456.699 353.824V353.9C456.699 354.518 456.58 355.072 456.342 355.564C456.107 356.053 455.77 356.434 455.328 356.707C454.891 356.98 454.387 357.117 453.816 357.117C452.957 357.117 452.26 356.818 451.725 356.221C451.193 355.623 450.928 354.832 450.928 353.848V353.771ZM452.018 353.9C452.018 354.604 452.18 355.168 452.504 355.594C452.832 356.02 453.27 356.232 453.816 356.232C454.367 356.232 454.805 356.018 455.129 355.588C455.453 355.154 455.615 354.549 455.615 353.771C455.615 353.076 455.449 352.514 455.117 352.084C454.789 351.65 454.352 351.434 453.805 351.434C453.27 351.434 452.838 351.646 452.51 352.072C452.182 352.498 452.018 353.107 452.018 353.9ZM457.771 353.771C457.771 353.15 457.893 352.592 458.135 352.096C458.381 351.6 458.721 351.217 459.154 350.947C459.592 350.678 460.09 350.543 460.648 350.543C461.512 350.543 462.209 350.842 462.74 351.439C463.275 352.037 463.543 352.832 463.543 353.824V353.9C463.543 354.518 463.424 355.072 463.186 355.564C462.951 356.053 462.613 356.434 462.172 356.707C461.734 356.98 461.23 357.117 460.66 357.117C459.801 357.117 459.104 356.818 458.568 356.221C458.037 355.623 457.771 354.832 457.771 353.848V353.771ZM458.861 353.9C458.861 354.604 459.023 355.168 459.348 355.594C459.676 356.02 460.113 356.232 460.66 356.232C461.211 356.232 461.648 356.018 461.973 355.588C462.297 355.154 462.459 354.549 462.459 353.771C462.459 353.076 462.293 352.514 461.961 352.084C461.633 351.65 461.195 351.434 460.648 351.434C460.113 351.434 459.682 351.646 459.354 352.072C459.025 352.498 458.861 353.107 458.861 353.9ZM464.639 353.777C464.639 352.805 464.869 352.023 465.33 351.434C465.791 350.84 466.395 350.543 467.141 350.543C467.883 350.543 468.471 350.797 468.904 351.305V348H469.988V357H468.992L468.939 356.32C468.506 356.852 467.902 357.117 467.129 357.117C466.395 357.117 465.795 356.816 465.33 356.215C464.869 355.613 464.639 354.828 464.639 353.859V353.777ZM465.723 353.9C465.723 354.619 465.871 355.182 466.168 355.588C466.465 355.994 466.875 356.197 467.398 356.197C468.086 356.197 468.588 355.889 468.904 355.271V352.359C468.58 351.762 468.082 351.463 467.41 351.463C466.879 351.463 466.465 351.668 466.168 352.078C465.871 352.488 465.723 353.096 465.723 353.9Z" fill="black"/>
</svg>
